<svg id="Calque_1" data-name="Calque 1" xmlns="http://www.w3.org/2000/svg" viewBox="0 0 512 331.83"><defs><style>.cls-1{fill:#f2f2f2;}.cls-2{fill:#e0b286;}</style></defs><title>KYAAF_Dark</title><path class="cls-1" d="M407.56,210.3c-.6,27.75-3.92,58.35-12.13,89.22,0,0-12.73-2.77-35.41-6.39,7.69-29.28,11.59-54.48,13-76a275.86,275.86,0,0,0,.44-31.67A206.71,206.71,0,0,0,369.35,152a132.39,132.39,0,0,0-8.84-27.61,284.42,284.42,0,0,0,34.92-28.87s4.05,14.77,7.5,38.81c1.63,11.45,3.12,25,4,40.06C407.56,185.59,407.83,197.65,407.56,210.3Z"/><path class="cls-1" d="M351.49,192.15a242.2,242.2,0,0,0-2.77-30.81,146,146,0,0,0-6.1-25.23q-12.42,7.57-25.42,14.12c-8.5,4.32-17.18,8.31-25.94,12-9.07,3.82-18.25,7.33-27.46,10.57.49,5.44.91,11.58,1.14,18.22.24,7.07.27,14.75,0,22.79-.24,6.62-.71,13.51-1.49,20.53a224.6,224.6,0,0,1-9.84,46.24c10.25.81,20.08,1.7,29.42,2.62a248.92,248.92,0,0,0,10.75-53q15-2.16,28.56-4.31a358,358,0,0,1-7.79,60.83c9.91,1.22,19,2.45,27.31,3.63a495,495,0,0,0,9.23-69.23C351.65,210.47,351.75,200.84,351.49,192.15Zm-56.62,14.92c.07-8-.26-16.33-1.05-25q13.43-4.44,26.7-9.39c1.05,9.46,1.68,18.66,1.94,27.53Q308.54,203.83,294.87,207.07Z"/><path class="cls-1" d="M243,197.17q-.33-8.35-1.16-17.18c-8.36,2.54-16.71,4.84-25,7q-11.55,2.94-22.94,5.38c-8.09,1.76-16.08,3.31-23.94,4.72.16,5.3.22,10.92.14,16.79-.08,5.43-.26,11.06-.61,16.84-.28,4.68-.65,9.46-1.17,14.3a275.19,275.19,0,0,1-5,31.31q12.47.19,24.46.61a304.86,304.86,0,0,0,5.27-34.35q11.48-1.17,22.47-2.4a257.15,257.15,0,0,1-6.64,37.61q13.31.66,25.89,1.48a284.67,284.67,0,0,0,7.12-42.15c.57-5.94,1-12.22,1.18-18.8C243.3,211.54,243.3,204.48,243,197.17ZM194.17,227c.27-5.79.39-11.85.32-18.13,7.5-1.62,15.11-3.35,22.78-5.18,0,6.2-.08,12.76-.42,19.52Q205.28,225.21,194.17,227Z"/><path class="cls-1" d="M154.26,199.69a72.11,72.11,0,0,1-6.06,18.22h0a84.38,84.38,0,0,1-11,17q-2.92,3.57-6.51,7.18c-1.67,1.66-3.24,3.31-4.73,4.92-.53.58-1.07,1.16-1.57,1.75q-3.81,4.28-6.74,8.19a84.76,84.76,0,0,0-11.36,19.61q-9.72.24-19.62.63c1.61-6.85,4.93-15.95,11.75-26.54a125,125,0,0,1,8.66-11.8c-.13-.21-.24-.44-.35-.65A96.58,96.58,0,0,1,101,225.34a166.94,166.94,0,0,1-5.65-18.73c5.51-.46,11.24-1,17.16-1.58A126.75,126.75,0,0,0,117,223h0c.29.94.61,1.91,1,2.9.87-1.17,1.7-2.31,2.46-3.43h0c5.18-7.51,8-14,9.5-19.41h0C137.82,202.1,145.94,201,154.26,199.69Z"/><path class="cls-1" d="M57.05,253.15l13.57,24.74q-10,.51-20.14,1.2L40,258.2a162.58,162.58,0,0,1-3.44,21.93c-4.86.37-9.77.79-14.67,1.24h0l-3.71.34a134.68,134.68,0,0,0,6.27-26.95c.36-2.9.65-5.93.79-9l.23-.46c-.63,0,.4-1.76-.15-1.74a81.57,81.57,0,0,0-.24-10c-.18-2.32-.45-4.65-.86-7a56.23,56.23,0,0,0-6-17.74s5.28.24,14.72.27c1.6,0,3.3,0,5.13,0,.72,4.26,1.27,8.41,1.67,12.41q.32,3.07.54,6l1.66-2,13.78-16.72h0c5.5-.18,11.49-.42,17.95-.76L57.75,230.62h0L50.4,241l.79,1.44Z"/><path class="cls-1" d="M502.29,42.09S456.5,92,403.3,124.54c-3.11-19.17-6.25-30.64-6.25-30.64S452.1,50.19,479.62,0C479.62,0,497.43,14.57,502.29,42.09Z"/><path class="cls-1" d="M503.9,145.71s-43.79,25.16-94.74,42.54c-.13-5.32-.34-10.5-.63-15.48-.16-2.79-.34-5.52-.55-8.21,0,0,52.21-18.85,86.21-49.61C494.19,115,505.52,126.28,503.9,145.71Z"/><path class="cls-2" d="M274,286.16v6.06c-48.81-5.1-108.59-8.84-171.62-7.27v-5.36A1462.15,1462.15,0,0,1,274,286.16Z"/><path class="cls-2" d="M120.19,287.16s9.65,41.26,55,44.5S253,292,253,292s-40.54,36.39-77.78,31.53S120.19,287.16,120.19,287.16Z"/><path class="cls-2" d="M411.62,226.67s28-8.94,53.91-.84,46.47-.78,46.47-.78-17.46,14.58-46.61,8.1A277.35,277.35,0,0,0,411.62,226.67Z"/><path class="cls-2" d="M410.14,275.43s28.92-9.08,54.29.57,46,3.91,46,3.91-18.84,11.38-47.53,3.14A194.83,194.83,0,0,0,410.14,275.43Z"/><path class="cls-2" d="M18.19,281.74a3.91,3.91,0,0,1-2.25.78C9.87,282.52,0,265.45,0,244.88s9.87-36.83,15.94-36.83a3.9,3.9,0,0,1,2.24.78,2,2,0,0,0-.49-.05c-6,0-10.23,16.34-10.23,36.5s4.27,36.51,10.23,36.51A2.83,2.83,0,0,0,18.19,281.74Z"/><path class="cls-2" d="M18.19,208.05S258.48,218.87,394.9,94.93C394.9,94.93,276.54,197.52,18.19,208.05Z"/></svg>