<svg id="Calque_1" data-name="Calque 1" xmlns="http://www.w3.org/2000/svg" viewBox="0 0 512 331.83"><defs><style>.cls-1{fill:#404040;}.cls-2{fill:#e0b286;}</style></defs><title>KYAAF_Light</title><path class="cls-1" d="M407.56,210.41c-.6,27.75-3.92,58.35-12.13,89.22,0,0-12.73-2.77-35.41-6.39,7.69-29.28,11.59-54.49,13-76a275.86,275.86,0,0,0,.44-31.67,207,207,0,0,0-4.14-33.5,132.26,132.26,0,0,0-8.84-27.6,285.33,285.33,0,0,0,34.92-28.87s4.05,14.77,7.5,38.81c1.63,11.45,3.12,25,4,40.06C407.56,185.7,407.83,197.76,407.56,210.41Z" transform="translate(0 -0.11)"/><path class="cls-1" d="M351.49,192.26a242,242,0,0,0-2.77-30.81,146,146,0,0,0-6.1-25.23q-12.42,7.58-25.42,14.12c-8.5,4.32-17.18,8.31-25.94,12-9.07,3.82-18.25,7.33-27.46,10.57.49,5.44.91,11.58,1.14,18.22.24,7.07.27,14.74,0,22.79-.24,6.62-.71,13.5-1.49,20.53a224.6,224.6,0,0,1-9.84,46.24c10.25.81,20.08,1.7,29.42,2.62a248.92,248.92,0,0,0,10.75-53q15-2.16,28.56-4.31a358,358,0,0,1-7.79,60.83c9.91,1.21,19,2.45,27.31,3.63a495.22,495.22,0,0,0,9.23-69.23C351.65,210.58,351.75,201,351.49,192.26Zm-56.62,14.92c.07-8-.26-16.33-1.05-25q13.43-4.44,26.7-9.39c1.05,9.46,1.68,18.65,1.94,27.53Q308.54,203.94,294.87,207.18Z" transform="translate(0 -0.11)"/><path class="cls-1" d="M243,197.28c-.22-5.57-.6-11.31-1.16-17.18-8.36,2.54-16.71,4.84-25,7q-11.55,2.94-22.94,5.37c-8.09,1.77-16.08,3.32-23.94,4.73.16,5.3.22,10.91.14,16.79-.08,5.43-.26,11.06-.61,16.84-.28,4.68-.65,9.45-1.17,14.3a275.19,275.19,0,0,1-5,31.31q12.47.19,24.46.61a304.86,304.86,0,0,0,5.27-34.35q11.48-1.17,22.47-2.4a257.15,257.15,0,0,1-6.64,37.61q13.31.66,25.89,1.47a284.28,284.28,0,0,0,7.12-42.14c.57-5.94,1-12.22,1.18-18.8C243.3,211.65,243.3,204.59,243,197.28Zm-48.84,29.8c.27-5.79.39-11.85.32-18.13,7.5-1.62,15.11-3.35,22.78-5.18,0,6.2-.08,12.76-.42,19.52Q205.28,225.32,194.17,227.08Z" transform="translate(0 -0.11)"/><path class="cls-1" d="M154.26,199.8A72.11,72.11,0,0,1,148.2,218h0a84.66,84.66,0,0,1-11,17c-1.95,2.38-4.12,4.78-6.51,7.17-1.67,1.67-3.24,3.32-4.73,4.93-.53.58-1.07,1.16-1.57,1.75-2.54,2.84-4.78,5.58-6.74,8.19a84.94,84.94,0,0,0-11.36,19.6q-9.72.25-19.62.64c1.61-6.85,4.93-15.95,11.75-26.54a125,125,0,0,1,8.66-11.8c-.13-.21-.24-.44-.35-.65A97.16,97.16,0,0,1,101,225.45a166.45,166.45,0,0,1-5.65-18.74c5.51-.45,11.24-1,17.16-1.57a126.75,126.75,0,0,0,4.47,18h0c.29.94.61,1.91,1,2.9.87-1.17,1.7-2.32,2.46-3.43h0c5.18-7.52,8-14,9.5-19.42h0C137.82,202.21,145.94,201.1,154.26,199.8Z" transform="translate(0 -0.11)"/><path class="cls-1" d="M57.05,253.26,70.62,278q-10,.51-20.14,1.2L40,258.31a162.39,162.39,0,0,1-3.44,21.92c-4.86.38-9.77.8-14.67,1.25h0l-3.71.34a134.67,134.67,0,0,0,6.27-27c.36-2.89.65-5.92.79-9l.23-.46c-.63,0,.4-1.76-.15-1.75a81.45,81.45,0,0,0-.24-10c-.18-2.32-.45-4.65-.86-6.95a56.29,56.29,0,0,0-6-17.75s5.28.25,14.72.28c1.6,0,3.3,0,5.13,0,.72,4.26,1.27,8.41,1.67,12.41q.32,3.08.54,6l1.66-2,13.78-16.72h0c5.5-.18,11.49-.42,17.95-.76L57.75,230.72h0l-7.33,10.4.79,1.44Z" transform="translate(0 -0.11)"/><path class="cls-1" d="M502.29,42.2s-45.79,49.92-99,82.45C400.19,105.48,397.05,94,397.05,94S452.1,50.3,479.62.11C479.62.11,497.43,14.68,502.29,42.2Z" transform="translate(0 -0.11)"/><path class="cls-1" d="M503.9,145.82S460.11,171,409.16,188.35c-.13-5.31-.34-10.49-.63-15.47-.16-2.79-.34-5.52-.55-8.21,0,0,52.21-18.85,86.21-49.61C494.19,115.06,505.52,126.39,503.9,145.82Z" transform="translate(0 -0.11)"/><path class="cls-2" d="M274,286.27v6.06c-48.81-5.1-108.59-8.84-171.62-7.27V279.7A1462.15,1462.15,0,0,1,274,286.27Z" transform="translate(0 -0.11)"/><path class="cls-2" d="M120.19,287.27s9.65,41.26,55,44.5S253,292.13,253,292.13s-40.54,36.39-77.78,31.53S120.19,287.27,120.19,287.27Z" transform="translate(0 -0.11)"/><path class="cls-2" d="M411.62,226.77s28-8.93,53.91-.83,46.47-.78,46.47-.78-17.46,14.58-46.61,8.1A277.87,277.87,0,0,0,411.62,226.77Z" transform="translate(0 -0.11)"/><path class="cls-2" d="M410.14,275.54s28.92-9.08,54.29.57,46,3.91,46,3.91-18.84,11.38-47.53,3.14A194.83,194.83,0,0,0,410.14,275.54Z" transform="translate(0 -0.11)"/><path class="cls-2" d="M18.19,281.85a3.91,3.91,0,0,1-2.25.78C9.87,282.63,0,265.55,0,245s9.87-36.83,15.94-36.83a3.9,3.9,0,0,1,2.24.78,2,2,0,0,0-.49-.05c-6,0-10.23,16.33-10.23,36.5s4.27,36.51,10.23,36.51A2.83,2.83,0,0,0,18.19,281.85Z" transform="translate(0 -0.11)"/><path class="cls-2" d="M18.19,208.16S258.48,219,394.9,95C394.9,95,276.54,197.63,18.19,208.16Z" transform="translate(0 -0.11)"/></svg>