<svg id="Calque_1" data-name="Calque 1" xmlns="http://www.w3.org/2000/svg" viewBox="0 0 512 512"><defs><style>.cls-1{fill:#404040;}.cls-2{fill:#f95623;}</style></defs><path class="cls-1" d="M510.58,200.25c-2.39,2.28-5.18,2.68-8.4,2.35q-57.39-5.79-114.8-11.4a12.35,12.35,0,0,1-8-3.71q-41.17-41.06-82.48-82a9.35,9.35,0,0,1-3-7.48l1.4-3c2.38-2.3,5.17-2.66,8.4-2.33q57.62,6,115.24,11.76a11.22,11.22,0,0,1,7.19,3.37q41.13,40.79,82.37,81.46c2.31,2.28,3.77,4.68,3.52,8Z"/><path class="cls-1" d="M450.52,211.58c-.35.88-.59,1.58-.89,2.25-3.82,8.11-7.72,16.18-11.44,24.34a13.84,13.84,0,0,1-9.5,8c-6.84,1.87-13.75,1.44-20.65.48a143.28,143.28,0,0,1-22-4.81v-7c0-12.9-8-20.91-20.9-20.92h-33.5a102.81,102.81,0,0,1-12.35-11.29,71.32,71.32,0,0,1-8.74-12.3c-2.27-3.91-2-8.15.06-12.34,3.9-8,7.62-16,11.41-24.1.33-.68.64-1.36,1.16-2.44,6.89,6.84,13.4,13.29,19.9,19.77q13.59,13.48,27.14,27a22.37,22.37,0,0,0,14,6.74q31.73,3.13,63.43,6.32Z"/><path class="cls-1" d="M459.89,268.1a4.15,4.15,0,0,0,0,4.08,14,14,0,0,1-9.68,20.06,4.13,4.13,0,0,0-2.48,1.94c-4.65,9.62-9.16,19.3-13.74,29-1.61,3.41-4.65,5-7.92,4.38a7.22,7.22,0,0,1-2-.71V312.72l-.3-.78q5.47-11.71,11-23.39a3.83,3.83,0,0,0,0-3.86,13.9,13.9,0,0,1,9.61-20,3.34,3.34,0,0,0,2.66-2.14c7.36-15.68,14.78-31.32,22.1-47,.76-1.64,1.56-2.09,3.33-1.84,4.06.57,8.17.87,12.5,1.3l-1.21,2.55Q471.86,242.83,459.89,268.1Z"/><path class="cls-1" d="M246.55,169.86q-4.61,3.75-9.36,7.25l-35.37,0a19.19,19.19,0,0,0-19.19,15,23.76,23.76,0,0,0-.5,5.54V198c0,3.89,0,7.78,0,11.7-3,1.44-6,2.84-9.06,4.18l-4.93,0c-18.28,0-37.18,0-55.75-.12h-.27c-12.48,0-18.29,6.88-21,12.68l-.93,2V238a352.1,352.1,0,0,1-59.55,3.89c-8.39-.15-16.77-1-25.15-1.54Q2.75,230.92,0,221.5L241,151Q243.8,160.45,246.55,169.86Z"/><path class="cls-1" d="M10,203.06C-1.79,167.52,2.9,134.38,23.34,102.67l30.53,65.88,13.32-6.14c-1.77-3.86-3.46-7.62-5.19-11.36Q48.22,121.26,34.47,91.44A2.73,2.73,0,0,1,34.7,89c3.56-3.57,7.26-7,11.37-10.92l39.79,87.57,52.76-15.42c-4.53-31.56-9-63.05-13.66-95.23,5.64,1.1,10.81,2.07,16,3.19.48.11,1,1.17,1.06,1.85q3.6,26,7.11,51.94c1.07,7.85,2.12,15.7,3.2,23.55a15.87,15.87,0,0,0,.53,1.84l14.33-1.92c-3.24-23.88-6.46-47.61-9.77-71.94,34.26,15.62,56.07,41.06,65.35,77.38Z"/><path class="cls-2" d="M122.25,139.69,94,148Q72.53,100.7,51,53.4L107.5,36.9C112.42,71.21,117.32,105.37,122.25,139.69Z"/><path class="cls-1" d="M100.27,329.33c7.5,4,15.55,5,24,4.92,27.46-.17,54.92-.06,82.38-.06h4v6.27c0,6.94,0,13.88,0,20.82,0,5.78,3.85,9.67,9.56,9.7q18.08.09,36.14,0c5.56,0,9.38-3.92,9.42-9.52.06-9,0-17.93,0-27.08H276a79.34,79.34,0,0,0,11.84,29.94,78,78,0,0,0,23.63,23.19c1.49.93,2.39,1.82,2.39,3.8,0,22.26.08,44.51.14,66.76a4,4,0,0,1-.34.9h-3.47q-99.06,0-198.13.06c-5.63,0-9.7-1.76-11.82-7.15Z"/><path class="cls-1" d="M100.27,230.68c2.39-5.15,6.41-6.87,12-6.82,25.32.2,50.64.08,76,.08h3.91c0-8.82,0-17.36,0-25.91a17,17,0,0,1,.24-3.65c1-4.42,4.6-7.18,9.4-7.19q36.3,0,72.59,0c5.79,0,9.62,3.81,9.67,9.57.06,8,0,15.93,0,23.89v3.29h81.07c7.37,0,10.82,3.47,10.83,10.88,0,3.46,0,6.92,0,10.61-24.3-6.45-46.9-3.16-67.36,11.12S277.37,290.72,275,315.81h-3.64c-49.52,0-99-.14-148.56.1-11.18,0-18.89-3.94-22.56-14.76Zm165.31-24.91H210.81v18h54.77Z"/><path class="cls-1" d="M414,326.88c-1,4.14-1.67,8.37-3,12.41-5.53,17.29-16.68,29.67-33.27,37-2,.89-2.73,1.87-2.68,4,.14,6,.05,12,.05,18.11h-42.9c0-6-.12-11.9.06-17.78.08-2.42-.71-3.52-3-4.49-24.87-10.8-38.92-36.32-35.4-64,3.21-25.31,24.44-46.69,50.36-50.72,33.61-5.23,64.47,17.9,69.17,51.82a6.1,6.1,0,0,0,.52,1.38Zm-18.38-5.75A42,42,0,1,0,353.43,363,41.91,41.91,0,0,0,395.61,321.13Z"/><path class="cls-2" d="M332.57,417.16h42.31a22.15,22.15,0,0,1,.23,2.33c0,11.12.12,22.24,0,33.36-.16,13.38-10,22.9-22.7,22.28-9.6-.46-19-8-19.63-17.48C332,444.26,332.57,430.78,332.57,417.16Z"/><path class="cls-2" d="M229.21,334.3H247.1v18.11H229.21Z"/></svg>