<svg id="Calque_1" data-name="Calque 1" xmlns="http://www.w3.org/2000/svg" viewBox="0 0 512 512"><defs><style>.cls-1{fill:#404040;}.cls-2{fill:#f95623;}</style></defs><path class="cls-1" d="M422,111.19V265.83l-41.07,23.71-2-.61c-23.09-7.26-38.2,5.54-42.26,9.62a26.93,26.93,0,0,0-5.71,8l-6.67,15.67-36.18,20.9V188.47l14.87-8.6Z"/><polygon class="cls-2" points="326.98 41.78 275.66 12.07 138.52 91.24 189.9 120.95 326.98 41.78"/><polygon class="cls-2" points="412.74 91.24 353.6 57.56 216.52 136.73 224.34 140.78 275.66 170.41 326.7 140.98 412.74 91.24"/><path class="cls-1" d="M262.81,188.78v153L237.12,327a79.4,79.4,0,0,0-105.74-61l-.62-.35V112.37l50.65,29.17v39.27l24.41,12.54V156Z"/><g id="Layer_1" data-name="Layer 1"><path class="cls-1" d="M364.1,458.1l-8.65,9-8.72,8.72c-4.16,4.15-11.31,3.72-16-.94s-5.1-11.83-.95-16c-4.15,4.15-11.3,3.72-16-.95s-5.08-11.81-.93-16c-4.15,4.16-11.32,3.72-16-.94s-5.1-11.82-.94-16c-4.16,4.15-11.31,3.72-16-.94s-5.1-11.83-.95-16l7.7-7.7,9.43-8.91-.08-.25c4.23-3.29,10.71-2.69,15.06,1.66,4.67,4.68,5.1,11.83.94,16,4.16-4.15,11.32-3.72,16,.95s5.09,11.81.94,16c4.15-4.15,11.31-3.72,16,1s5.08,11.82.93,16c4.15-4.16,11.32-3.73,16,.92C366.05,447.84,366.83,453.89,364.1,458.1Z"/><path class="cls-1" d="M476.88,368.22,443.12,402l.07.07h0l-58-60s-6.71-6.17-18.34,7.89a21.57,21.57,0,0,0-1.9,1.72,28.7,28.7,0,0,0-4.8,6.42l-7.32,13.57a19.56,19.56,0,0,1-3.36,4.35c-5.48,5.48-12.48,7.67-19.22,6.05a21,21,0,0,1-13.87-11c-2-3.89-2.38-7.79-1.14-10.72L337,309.11a20.35,20.35,0,0,1,4.32-5.94c3.42-3.43,16.13-14.14,35.68-8l48.87,15.34a5.29,5.29,0,0,1,2.16,1.31l48.86,48.88A5.33,5.33,0,0,1,476.88,368.22Z"/><path class="cls-1" d="M508,323.7l-43-43a10.62,10.62,0,0,0-15,0l-15,15a10.65,10.65,0,0,0,0,15l43,43a10.64,10.64,0,0,0,15,0l15-15A10.64,10.64,0,0,0,508,323.7Zm-22.58,21.91a8.73,8.73,0,1,1,8.73-8.72A8.72,8.72,0,0,1,485.45,345.61Z"/></g><path class="cls-2" d="M450.4,433.68A17.9,17.9,0,0,1,438.77,439a18.19,18.19,0,0,1-16.91,16.92,18.25,18.25,0,0,1-16.93,16.92,18,18,0,0,1-5.28,11.62c-6.74,6.73-17.27,7.17-23.49.94l-19.5-19.49-1.21,1.21,8.65-9-.06.1,19.63,19.65c2,2,5.91,1.6,8.47-.94s3-6.42.93-8.46l-16.13-16.14a5.31,5.31,0,1,1,7.52-7.51l16.13,16.13c2,2,5.91,1.6,8.45-.94s3-6.42.95-8.45L393.86,435.4a5.31,5.31,0,1,1,7.52-7.51L417.51,444c2,2,5.91,1.61,8.46-.94s3-6.42.93-8.45l-16.12-16.13a5.31,5.31,0,1,1,7.51-7.51l16.13,16.12c2,2,5.91,1.6,8.46-1s3-6.42.93-8.46c0,0-57.4-57.65-68.35-68.22-1.14-1.09-3.63-3.5-8.63.47,11.63-14.06,18.34-7.89,18.34-7.89l58,60h0l8.15,8.16C457.55,416.41,457.14,427,450.4,433.68Z"/><path class="cls-2" d="M286.76,400.45l1.71-1.7L256.75,367a5.32,5.32,0,1,1,7.53-7.52l31.79,31.8,0,0,.08.25Z"/><path class="cls-1" d="M210.25,288.77A72.58,72.58,0,0,0,102,385.07L87.88,399.16l-4.9-4.9a8.49,8.49,0,0,0-12,0l-64,64A23.86,23.86,0,0,0,40.74,492l64-64a8.47,8.47,0,0,0,0-12l-4.9-4.9L114,397.05a72.43,72.43,0,0,0,45,15.58C223.22,412.63,255.93,334.46,210.25,288.77Zm-55.5,38.89a1,1,0,0,0,.21,0h8.21c14.93,0,22.8,11.3,23.8,21.81.94,9.81-3.88,21.44-16.42,25.25v6.9a11.26,11.26,0,0,1-6.43,10.19,12.87,12.87,0,0,1-5.44,1.24,11.65,11.65,0,0,1-6.33-1.86,11.78,11.78,0,0,1-5.49-10V377H142.2A11.24,11.24,0,0,1,132,370.55a12.06,12.06,0,0,1,.61-11.78,11.78,11.78,0,0,1,10-5.49h20.52c.05,0,.26,0,.31,0a1,1,0,0,0,.15-.58c0-.65-.24-.65-.46-.65h-8.3c-14.74,0-22.66-11.12-23.8-21.44-1.05-9.64,3.52-21.22,15.83-25.32v-6.56a11.24,11.24,0,0,1,6.42-10.18,12.06,12.06,0,0,1,11.78.61,11.78,11.78,0,0,1,5.49,10v4.25h5.21a11.25,11.25,0,0,1,10.2,6.43,12,12,0,0,1-.62,11.77,11.77,11.77,0,0,1-10,5.49H155a.69.69,0,0,0-.24,0A.72.72,0,0,0,154.75,327.66Z"/><path class="cls-2" d="M167,372v9.65a7.71,7.71,0,0,1-4.39,7,8.4,8.4,0,0,1-12.25-7.42v-7.77H142.2a7.72,7.72,0,0,1-7-4.39,8.4,8.4,0,0,1,7.42-12.25h20.52c5.32,0,5.3-8.33,0-8.33h-8.3c-24.38,0-28.26-35.28-4.45-40.57v-9.23a7.73,7.73,0,0,1,4.39-7A8.4,8.4,0,0,1,167,299.1v7.77h8.74a7.69,7.69,0,0,1,7,4.39,8.4,8.4,0,0,1-7.41,12.26H155c-5.07,0-5.07,7.68,0,7.68h8.21C187.9,331.2,191.29,367.32,167,372Z"/></svg>