<svg id="Calque_1" data-name="Calque 1" xmlns="http://www.w3.org/2000/svg" viewBox="0 0 512 512"><defs><style>.cls-1{fill:#404040;}.cls-2{fill:#f95623;}</style></defs><path class="cls-1" d="M269.89,181c-9.73,11.55-19.19,22.93-28.84,34.16-4.61,5.36-7.33,11.22-7.14,18.45,0,1.31-1.45,3.22-2.74,3.94-16.44,9.14-34,10.8-52,6.54-7.91-1.87-15.53-5-23.18-7.78-1.26-.46-2.27-2.16-2.94-3.52-1.91-3.85-2.94-8.31-5.47-11.66-9.37-12.37-19.2-24.38-28.86-36.53-1.31-1.64-2.6-3.29-4.06-5.16,6.59-7.1,7.08-15.34,5.33-24.23-1.53-7.73-2.56-15.57-3.71-23.38-1.21-8.26-5.13-15.13-10.81-21.41,6.41-9.29,14.49-16.88,23.14-23.9,14.84-12,31.11-21.91,47.87-31a6.18,6.18,0,0,1,2.74-1c15.47.14,31.12-1.51,46.15,3.74,26.63,9.3,43.59,27.65,51.1,54.82a6,6,0,0,1-1.32,6.11c-4.3,5-5.41,11.32-6.16,17.69q-1.54,13-3.28,26C264.81,169.29,265.71,175.26,269.89,181Z"/><path class="cls-1" d="M299.48,323.72l-.29,0c-3.56.45-6.16,1.86-7.72,4.14-1.8,2.68-3.46,5.4-5.22,8.28l-1.91,3.11a7.11,7.11,0,0,0,0,7.57l.23.37c-1.54.11-5,.44-7.23,3.62-2,2.86-3.8,5.76-5.72,8.81l-2,3.1a7.16,7.16,0,0,0,0,7.62l.24.34c-1.81.2-5.14.69-7.27,3.77-1,1.48-2,3-3,4.51H44.87c-3.95-25.68,7.14-43.31,28.55-55.59,15.43-8.85,32.23-14,49.24-18.67s24.26-14.13,24.27-31.82c0-6.21-.05-12.41,0-18.62.05-4.42,1.37-5.18,5.39-3.51,23.26,9.74,47,13.73,71.69,5.8,2.68-.86,5.29-1.9,8.81-3.17,0,2.55,0,4.7,0,6.87,0,4.66-.13,9.32.22,14a27.78,27.78,0,0,0,21.35,25.42c15.56,3.79,30.5,9,44.45,16.73a7.14,7.14,0,0,0,.58,7.28Z"/><path class="cls-1" d="M106.32,162.39c-.06,5.32-2.92,8.56-7.12,9s-7.8-2.22-8.65-6.94c-1.7-9.43-3.12-18.91-4.68-28.37-.47-2.92-.87-5.87-1.54-8.74-1-4.31-4.43-6.62-8.36-5.88A7.18,7.18,0,0,0,70,129.86c2,12.81,4,25.63,6.49,38.36,2,10.58,10.94,17.53,21.66,18.06a7.86,7.86,0,0,1,5.16,2.52c10.94,13.48,21.68,27.11,32.45,40.72,3.55,4.49,3.67,8.9.46,12.16s-7.64,3.18-12.19-.3C100.17,223.15,76.22,205,52.53,186.52a18.88,18.88,0,0,1-6.23-9.61c-12.1-49-23.89-98-35.73-147-1.66-6.85.19-9.7,7.16-11,7.76-1.43,15.54-2.73,23.34-4,5.38-.88,8.21,1.21,9.2,6.68C52.83,35.71,55.4,49.85,57.86,64a44.08,44.08,0,0,0,8.38,19.63c8.93,11.64,17.58,23.52,27,34.74a40,40,0,0,1,9.66,22.38C103.7,148.32,105.25,155.8,106.32,162.39Z"/><path class="cls-1" d="M280.29,164.75c1-8.72,1.49-17.81,3.36-26.6A41.43,41.43,0,0,1,290.58,123c7.4-10.31,15.32-20.27,23.49-30,8.3-9.88,12.44-21.19,14.06-33.82,1.6-12.45,3.78-24.82,5.77-37.21,1-6.37,3.84-8.22,10.36-7.21,6.83,1.07,13.67,2,20.5,3,7.59,1.11,9.84,4.14,8.13,11.55Q356.23,101.71,339.48,174a26.47,26.47,0,0,1-10.59,15.78q-34.15,25.36-68.27,50.78c-1.34,1-2.87,2.41-4.33,2.41-1.92,0-4.85-.62-5.58-1.94-2.31-4.21-3.12-9.23,0-13.23,10-12.76,20.37-25.26,30.74-37.73.76-.92,2.7-1.28,4-1.2,8.62.52,14.49-3.3,18.49-10.78,4.86-9.1,5.41-19.19,7.05-29,1.1-6.67,2.06-13.38,2.55-20.11a10,10,0,0,0-2.26-6.49c-2.65-3.17-8-2.29-9.92,1.65a37.82,37.82,0,0,0-2.87,9.65c-1.8,10.28-3.32,20.6-5,30.89a24.46,24.46,0,0,1-1.58,5.23c-1.26,3.05-3.57,4.86-6.95,4.35s-4.26-3.29-4.57-6.26C280.34,167,280.34,166,280.29,164.75Z"/><path class="cls-2" d="M247.65,6.2c-16.9,7.5-32.76,14.13-48.26,21.51C170.44,41.49,142.3,56.78,117.23,77c-7.63,6.15-14.37,13.42-21.85,20.49C91.18,92,86.46,86.12,82,80c-.72-1-.4-3-.11-4.46C90.5,32.42,128.82.33,172.84,0c18.59-.13,37.22.65,55.79,1.7C234.78,2.05,240.8,4.52,247.65,6.2Z"/><path class="cls-2" d="M207.84,39.77c5.94-2.67,10.8-5,15.79-7.09,12.62-5.19,25.27-10.35,38-15.26a6.86,6.86,0,0,1,5.6.64c20.43,14.83,33,34.72,37.45,59.61a5.5,5.5,0,0,1-.7,3.84c-4.93,6.69-10,13.23-15.28,20.08C273.94,65.46,247.51,44.86,207.84,39.77Z"/><path class="cls-1" d="M479.25,322c-6,3.11-11.78,6.14-17.59,9.05A26.58,26.58,0,0,0,447.5,347.4a5.37,5.37,0,0,1-3.21,2.71c-20.92,6.87-39.67,17.53-55.52,32.81-7.16,6.91-13.24,14.94-19.92,22.37a13,13,0,0,1-4.68,3.67,227.17,227.17,0,0,0-72.84,43.71c-17.32,15.43-36.85,27.6-59.14,34.73-12.34,3.94-25,5.45-37.85,2.83-3-.61-5.91-1.79-8.9-2.56-2.06-.53-2.77-1.78-2.82-3.78-.23-9.74,3.42-17.65,11.65-22.89,11.85-7.52,23.95-14.67,36-21.92a12.76,12.76,0,0,1,3.45-1.28c15.48-3.95,30.95-7.94,46.47-11.78,12.9-3.19,22.19-10.74,28.48-22.4,16.3-30.21,32.77-60.33,49.08-90.53,1-1.89,2.14-2.65,4.26-2.62a65.6,65.6,0,0,0,30.72-7.21c9.74-4.87,15.59-13.16,18.77-23.18,2.07-6.53,2.89-13.46,4.23-20.22a31.94,31.94,0,0,0,.37-3.39c.41-4.31,2.52-7.41,6.65-8.83A9.92,9.92,0,0,1,434,250.56c5.42,6.09,10.88,12.17,15.87,18.61A205.79,205.79,0,0,1,478.57,320C478.79,320.52,479,321.11,479.25,322Z"/><path class="cls-2" d="M357,454.21c8.5-36.24,40.73-78.52,90.1-93.69,3.29,14,6.58,28,9.93,42.25Zm45.6-54.87c.07,3.66,0,8,.31,12.31.19,2.63,2.51,4.32,5.19,4.34a4.92,4.92,0,0,0,5.1-4.44,127.52,127.52,0,0,0-.16-13,5,5,0,0,0-5-4.57C405.28,394,403.08,395.93,402.57,399.34Zm22.86-11.54c0,3.48,0,7.7.21,11.9a5.23,5.23,0,0,0,10.41-.22c.14-4.1.1-8.22-.15-12.32a4.91,4.91,0,0,0-5.14-4.72C428,382.36,426,384.17,425.43,387.8Z"/><path class="cls-1" d="M305.77,320.53c6.74-13.74,17-18.13,30.88-13.81,3.44,1.07,7,1.82,10.77,2.79-.36.8-.67,1.61-1.08,2.36q-23.73,43.76-47.48,87.51c-4.41,8.15-10.92,13.64-19.89,16-12.16,3.19-24.37,6.21-36.56,9.29-.36.1-.74.13-1.73.3,2.92-4.71,6-8.75,8.07-13.28,3.28-7.28,8.32-10.56,16.39-10.49,5.94.05,11.88-1.23,17.82-2,4.31-.53,6.48-2.87,6-6.3-.47-3.06-3.11-4.64-7.12-4.19-6.43.72-12.86,1.48-20.13,2.32,2.66-4.24,4.88-8,7.35-11.53.43-.63,1.86-.68,2.85-.8,7.67-.92,15.35-1.74,23-2.7,4.27-.54,6.49-4,4.91-7.42-1.19-2.6-3.36-3.41-6.13-3.07-5.52.68-11.05,1.29-17.44,2,2.69-4.24,5-8,7.51-11.67.38-.55,1.71-.52,2.61-.63,6.75-.81,13.53-1.49,20.27-2.43,4.33-.6,6.47-5.17,3.77-8.21a7.23,7.23,0,0,0-5-2.08c-4.59.15-9.15.89-14.45,1.48,2.53-4.08,4.64-7.68,7-11.12.45-.67,1.75-1,2.7-1.07,5.42-.7,10.85-1.26,16.27-1.93,4-.5,6.29-2.94,5.82-6.14s-3-4.82-7-4.4C312.53,319.7,309.39,320.11,305.77,320.53Z"/><path class="cls-1" d="M188.74,499.94a81.94,81.94,0,0,0,37.38,0c18.12-4,34.52-12,49.62-22.41,10.83-7.48,21-16,31.2-24.35a194.17,194.17,0,0,1,48-29.09c.75-.31,1.53-.55,2.68-1-2.17,4.92-4.47,9.4-6.14,14.1-2.46,6.89-4.41,14-6.7,20.89-.42,1.25-1.16,2.83-2.21,3.37-26.95,13.92-53.76,28.13-81,41.41-19.19,9.34-39.75,10.89-60.75,7.13C194.92,509,190.54,506.54,188.74,499.94Z"/><path class="cls-1" d="M482.77,332.35a61.08,61.08,0,0,0,16.86,27.11,5.75,5.75,0,0,1,.94,7.66,81.55,81.55,0,0,1-7.19,10.38c-7.39,8.49-16.53,14.77-26.7,20.19-1.32-5.59-2.56-10.89-3.81-16.2-1.76-7.52-3.55-15-5.27-22.57-1.83-8,1.06-14.34,8.23-18.12,5.29-2.79,10.63-5.48,16-8.21A6.65,6.65,0,0,1,482.77,332.35Z"/><path class="cls-2" d="M304.17,303.7c1.54-6.42,3-12.48,4.45-18.54,1.07-4.41,2.2-8.8,3.27-13.2.66-2.74,2.38-4,5.14-3.87,16.21.54,29,13.37,29.68,30.31-2.45-.64-4.81-1.11-7.08-1.86-12.67-4.2-24.16-2.37-34.31,6.56A7.31,7.31,0,0,1,304.17,303.7Z"/></svg>