<svg id="Calque_1" data-name="Calque 1" xmlns="http://www.w3.org/2000/svg" viewBox="0 0 512 512"><defs><style>.cls-1{fill:#404040;}.cls-2{fill:#f95623;}</style></defs><path class="cls-1" d="M303.25,501c0,5-1.34,8.79-6.05,11H276.52c-4.7-2.17-6-5.91-6-10.95q.11-79.71.07-159.39h32.63Q303.15,421.36,303.25,501Z"/><path class="cls-1" d="M498.92,324.44c0-14.5-10.62-24.88-25.13-25.08-2.36,0-4.71,0-7.26,0V283h12.12c3.72,0,7.43,0,11.15,0,5.49,0,9.2-3.4,9.14-8.24s-3.71-8.06-9.05-8.06q-23.79,0-47.59,0H303.18c0-7.59-.21-14.91.07-22.21.2-5.07-1.34-8.79-6.05-11H276.52c-4.7,2.16-6,5.9-6,10.95v.15a31.35,31.35,0,0,1,18.2,18.86c4.58,13.22-.05,27.63-11.28,35.05a2.07,2.07,0,0,0-.41.3,5.16,5.16,0,0,0,0,.9c.16,3.76.13,7.35.09,11.17h26.1V283.19h48.75v16.17h-5.61c-16.62,0-26.82,10.15-26.83,26.7v65q0,31,0,62c0,8.47,3,15.53,9.82,20.79a24.22,24.22,0,0,0,15.2,5q64.71.06,129.43,0c14.38,0,24.95-10.56,25-24.92Q499.08,389.15,498.92,324.44ZM368.67,283.09H449.8v16.09H368.67ZM464,394.78a8,8,0,0,1-11.07.46c-.83-.68-1.6-1.43-2.88-2.6v43.75c0,6.75-3,9.8-9.78,9.81h-62c-6.76,0-9.81-3.05-9.81-9.76q0-20.12,0-40.22v-3.55c-1.4,1.24-2.28,2.13-3.29,2.88a8.09,8.09,0,0,1-11.3-11.38,21.08,21.08,0,0,1,2-2.2Q378.95,358.9,402,335.84c5.16-5.16,9.26-5.18,14.41,0q23.07,23.06,46.12,46.13a23.69,23.69,0,0,1,1.69,1.78A8,8,0,0,1,464,394.78Z"/><path class="cls-2" d="M433.7,429.76H417.39v-2.91c0-7,0-14,0-20.92,0-5.06-3.5-8.67-8.16-8.66s-8.09,3.62-8.12,8.69c-.06,7.87,0,15.73,0,23.76H384.76v-2.46c0-16.31,0-32.61,0-48.91a4.49,4.49,0,0,1,.84-2.94c7.73-7.87,15.57-15.64,23.54-23.59.74.68,1.41,1.24,2,1.86,7,7,14,13.94,20.91,21a4.82,4.82,0,0,1,1.52,2.92C433.73,394.86,433.7,412.16,433.7,429.76Zm-16.33-57a8.14,8.14,0,1,0-8.08,8.19A8.22,8.22,0,0,0,417.37,372.72Z"/><path class="cls-1" d="M269.15,316.15v0l-19.55-.69-.12-.21c-16.61-.08-34-22.84-33.16-42.85,1.05-24.65,23.76-46,52.58-40.41V67.41H198.58V315.85H179V28.34H163.1V.25h-135V28.07H12.39V335.76H302V316.15ZM243.61,207H224.25V179.44h19.36Zm-19.46-83.4h19.37v27.56H224.15ZM61.6,67.62H80.77V95.18H61.6Zm-.08,56H80.74v27.49H61.52Zm19.24,55.74V207H61.57V179.33Zm.07,83.6H61.55V235.49H80.83Zm48.75,0H110.2c0-8.78,0-17.35.09-25.94,0-.59,1.33-1.64,2.06-1.66,5.65-.13,11.31-.07,17.23-.07Zm-19.15-55.8V179.47h19.12v27.62Zm19.2-56H110.38V123.54h19.25Zm.05-55.93H110.2c0-8.76,0-17.34.09-25.92,0-.59,1.32-1.65,2-1.67,5.65-.13,11.32-.07,17.34-.07Z"/><path class="cls-2" d="M273.61,292c-3.3,2.18-4,4.47-3.86,8,.22,5.06.06,10.14.06,15.55l-19.56-.68-.11-.21h0c0-5.45-.1-10.9,0-16.35a5.38,5.38,0,0,0-2.91-5.46,22.72,22.72,0,0,1-9.72-25.66,23.19,23.19,0,0,1,44.3-1.29C285.19,275.41,282.06,286.37,273.61,292Z"/></svg>