<svg id="Calque_1" data-name="Calque 1" xmlns="http://www.w3.org/2000/svg" viewBox="0 0 512 512"><defs><style>.cls-1{fill:#404040;}.cls-2{fill:#f95623;}</style></defs><path class="cls-1" d="M73.68,420c1.79-2,3.66-3.88,5.38-5.93,7.32-8.73,14.6-17.51,22.08-26.48V384q0-68.29,0-136.57a29.79,29.79,0,0,1,.32-4.91,10.61,10.61,0,0,1,9.47-8.79c1.15-.1,2.32-.12,3.47-.12H329.86a33.67,33.67,0,0,1,3.76.15,10.66,10.66,0,0,1,9.23,8.71,33.46,33.46,0,0,1,.31,5.2q0,68.3,0,136.57a8.62,8.62,0,0,0,2.21,6c8.48,10,16.86,20.15,25.19,30.14a16.18,16.18,0,0,1-15.16,16.49c-1.16.07-2.32.11-3.48.11q-129.76,0-259.52,0c-7.64,0-13.57-2.51-17.08-9.56-.63-1.28-1.07-2.66-1.6-4ZM222.38,243.5H128.14c-7.95,0-11.51,3.57-11.51,11.5V366.05c0,8.11,3.54,11.64,11.67,11.64H315.91c8.34,0,11.79-3.45,11.79-11.79q0-55.24,0-110.48c0-8.51-3.41-11.92-12-11.92Zm36.81,167.13H185.14L177,420.36H267.3Zm-37,21c6.76,0,13.52,0,20.28,0,2.06,0,4.19-.11,4.29-2.69s-2.06-2.88-4.11-2.88H201.56c-1.95,0-4,.24-4,2.7,0,2.62,2,2.87,4.1,2.86C208.52,431.57,215.38,431.59,222.23,431.59Z"/><path class="cls-2" d="M342,444.8H101.89a22.17,22.17,0,0,1-15.68-6.49H357.63A22.17,22.17,0,0,1,342,444.8Z"/><path class="cls-2" d="M181.56,212.49c-1-3.42-2.28-6.76-3.43-10.15-.15-.49-.24-1-.37-1.51L172.29,189c-1.68-2.8-3.31-5.65-5.06-8.41-9.48-15-21.41-27.55-36.89-36.45-.53-.3-1.07-.61-1.62-.9-28.73-2.52-48.39,20.35-48.39,20.35s-3.93,4.93-14.47,9.8-16.22,4.39-16.22,4.39c-26.87,3.13-47.85,25.11-47.85,25.11C-.5,213.19-.35,223.67.87,234.14a115.51,115.51,0,0,0,7.25,28.73,18.13,18.13,0,0,1,.52,1.82l5.62,12.15c1.64,2.7,3.12,5.51,4.94,8.07a71.64,71.64,0,0,0,7.66,9.78c5.32,5.27,12,5.93,18.18,2.06A16.16,16.16,0,0,0,49.61,292c4.28-6.38,6.94-13.55,9.41-20.78,1.5-4.38,2.8-8.82,4.16-13.25a12.61,12.61,0,0,1,7-8.15L97,237.39a16,16,0,0,1,13.26-9.67c1.43-.14,2.81-.15,4-.15h4l2.86-1.32a12.36,12.36,0,0,1,10.72,0l3,1.36h48a15.93,15.93,0,0,0,.42-2.1C183.87,221,182.83,216.72,181.56,212.49Zm-120,2.79c0,.49-.71,1.12-1.25,1.38-3.21,1.55-6.48,3-9.94,4.62,1.43,3.08,2.69,6.11,4.21,9A2.65,2.65,0,0,1,54,234a11.09,11.09,0,0,1-8.32,3.52,2.28,2.28,0,0,1-2.27-1.54c-1.32-3.07-2.78-6.08-4.31-9.39l-2.21,1c-2.24,1-4.52,2-6.68,3.15a2.56,2.56,0,0,1-3.54-.6,13.09,13.09,0,0,1-3.7-8.15,2.16,2.16,0,0,1,1.49-2.55c3.21-1.37,6.37-2.91,9.73-4.46-1.6-3.47-3-6.69-4.59-9.83a1.8,1.8,0,0,1,.55-2.54,14.8,14.8,0,0,1,9.26-3.76A2.19,2.19,0,0,1,41,199.87c1.56,3.16,3,6.36,4.58,9.78,2.81-1.3,5.66-2.4,8.27-3.89,1.94-1.11,3.2-.56,4.62.74C61.09,208.88,61.78,212,61.6,215.28Zm32.89-39.95a9.74,9.74,0,1,1,13,4.83A9.7,9.7,0,0,1,94.49,175.33Zm24.18,29.25a9.74,9.74,0,1,1,4.87-12.84A9.63,9.63,0,0,1,118.67,204.58Zm17-21.52a9.77,9.77,0,1,1,4.71-12.94A9.76,9.76,0,0,1,135.65,183.06Z"/><path class="cls-1" d="M128.72,143.24c-28.73-2.52-48.39,20.35-48.39,20.35s-3.93,4.93-14.47,9.8-16.22,4.39-16.22,4.39c-26.87,3.13-47.85,25.11-47.85,25.11.22-1,.46-2,.72-3,3.25-12,10.37-20.77,22.37-25a48.71,48.71,0,0,1,24.63-1.71A19.06,19.06,0,0,0,61,171.74c2.12-1,4.25-2,6.39-3a19.6,19.6,0,0,0,8.76-7.85,60.79,60.79,0,0,1,4.61-6.63c5.92-7.25,13.06-12.8,22.36-15C112.24,137.17,120.76,139,128.72,143.24Z"/><path class="cls-1" d="M481.79,167l-5.86,1.39,12.82,7,6-1.31Z"/><path class="cls-1" d="M502.33,188l-60.06,110a8.57,8.57,0,0,1-11.6,3.4L348.45,256.4v-4.59l84.14,46a4.54,4.54,0,0,0,6.14-1.81L498.8,186a4.52,4.52,0,0,0-1.8-6.14l-8.25-4.51,6-1.31,4.19,2.29A8.56,8.56,0,0,1,502.33,188Z"/><path class="cls-1" d="M234.3,184.29a4.53,4.53,0,0,0,1.8,6.14l68,37.14h-8.39L234.17,194a8.56,8.56,0,0,1-3.4-11.6l60.06-110A8.58,8.58,0,0,1,302.44,69l179.35,98-5.86,1.39L300.51,72.53a4.55,4.55,0,0,0-6.15,1.81Z"/><circle class="cls-1" cx="299.23" cy="80.97" r="3.34"/><path class="cls-2" d="M297.36,84.4a3.9,3.9,0,1,1,5.29-1.56A3.91,3.91,0,0,1,297.36,84.4Zm3.2-5.87a2.79,2.79,0,1,0,1.11,3.78A2.78,2.78,0,0,0,300.56,78.53Z"/><polygon class="cls-1" points="504.75 171.87 494.74 174.06 488.75 175.37 394.65 195.97 392.86 188.12 475.93 168.37 481.79 166.98 502.51 162.06 504.75 171.87"/><path class="cls-2" d="M385.05,195.07l9.11,1-1.8-7.86-7.76,4.87A1.07,1.07,0,0,0,385.05,195.07Z"/><path class="cls-2" d="M511.57,170.36l-5.6,1.7a.6.6,0,0,1-.76-.44L503,162.09a.61.61,0,0,1,.49-.73l5.79-.89a.6.6,0,0,1,.68.46l2,8.72A.58.58,0,0,1,511.57,170.36Z"/><path class="cls-1" d="M345.27,203.15c-10.91-6-9.23-18.45-7.31-32.8,1.48-11,3.15-23.55-1-34.63-2.14-5.65-5.69-9.13-10.57-10.36-17.85-4.48-48,21.58-48.35,21.85a1,1,0,1,1-1.32-1.52c1.27-1.11,31.3-27,50.17-22.28,5.54,1.4,9.57,5.3,12,11.6,4.38,11.56,2.67,24.33,1.16,35.61-2,14.82-3.55,26.52,7.78,31.49,8.64,3.79,17,3.71,24.76-.25a30.57,30.57,0,0,0,9.23-7.18,1,1,0,0,1,1.58,1.25c-.14.18-14.32,17.7-36.38,8Q346,203.57,345.27,203.15Z"/></svg>