<svg id="Calque_1" data-name="Calque 1" xmlns="http://www.w3.org/2000/svg" viewBox="0 0 512 512"><defs><style>.cls-1{fill:#404040;}.cls-2{fill:#f95623;}</style></defs><path class="cls-1" d="M375.93,494c.14,12.58-4,18-17,17.78q-45.87-.75-91.76,0c-12.56.23-16.19-5.15-16-16.9.46-34,.17-68,.17-103.9H183.38c-.28,5.61-.77,10.81-.78,16-.08,29.6-.33,59.19.1,88.79.16,11.1-3.39,16.16-15.25,16-31.09-.51-62.17-.46-93.23,0-12.06.17-16.61-4.45-16.49-16.61.43-46.86-.2-93.73.55-140.58.11-6.95,3.84-15.47,8.73-20.45,45.6-46.48,92-92.15,137.73-138.53,9.28-9.42,15.55-8.59,24.33.32,45.76,46.32,92.12,92.05,137.7,138.54a32.88,32.88,0,0,1,8.56,20.46C376.08,401.24,375.44,447.63,375.93,494Z"/><path class="cls-2" d="M422.89,339.59c-8.66,9.25-16.63,4.12-24-3.27q-86.77-87-173.74-173.72c-2.43-2.44-5-4.73-8.82-8.34C165.93,204.76,116.47,254.31,67,303.84c-10.45,10.48-21,20.81-31.39,31.41-7.44,7.61-15.48,14.32-25,4.35-8.89-9.27-2.23-16.92,4.86-24Q40,291.12,64.53,266.56a23.15,23.15,0,0,0,8.79,1.84c6.79,0,12.86-3.51,17.54-10.38a73.31,73.31,0,0,0,8.07-15.78,131.81,131.81,0,0,0,4.37-14.42L184,147.16c5.92-5.94,11.8-11.91,17.81-17.77,11.87-11.6,18.08-11.75,29.79-.08q45.58,45.44,91.06,91c-.47,3.87-.93,7.74-1.4,11.58-.25,2-.91,7.46,3.61,11.8l1.23,1.18,28.22,7.11L376,273.69c14.31,14.29,28.52,28.71,43,42.86C426,323.47,430.8,331.14,422.89,339.59Z"/><path class="cls-1" d="M501.72,37.48a73.41,73.41,0,0,0-26.06-9.93c-14.18-2.46-26.77.8-37.44,10.7A70.08,70.08,0,0,0,421.43,62c-2,4.55-5.05,8.06-8.16,11.87-1.13-4.86-2.12-9.43-1.61-14.31a69.23,69.23,0,0,0-1.53-21.7c-2.57-11.83-7.84-22-18.31-28.74C379.25,1.05,365.19-.85,350.61,0c-2.6.15-4,1.72-4.28,4.36a85.67,85.67,0,0,0,1.55,30.57c4.31,17.52,15.36,28.46,32.65,33.27A81.76,81.76,0,0,0,404,70.94c1.23,10.67.92,21-2.67,31.22l9,2.27c1.17-8.88,7.4-22.89,12.69-28.64a77.79,77.79,0,0,0,23.26,8.91c12.94,2.55,25,.74,35.75-7.47A60.8,60.8,0,0,0,497.13,60c2.79-4.65,5.17-9.55,7.73-14.33l1-3.86C504.47,40.33,503.36,38.48,501.72,37.48Z"/><path class="cls-2" d="M466.3,118.54,369.19,94.07l-24.94-6.28c-4.12-1-6.14.43-6.63,4.61q-1.58,13.55-3.19,27.12c-.57,4.86.14,5.88,5,7.1l59.51,15q27.48,6.91,54.94,13.84c4,1,5.37.36,6.9-3.48,3.32-8.3,6.57-16.62,9.87-24.93C472.75,121.73,471.87,119.94,466.3,118.54ZM359,113.74c-1.46-.22-2.89-.71-4.33-1.07v0c-1.45-.37-2.93-.63-4.33-1.12a4.34,4.34,0,0,1-3.05-5.24,4.28,4.28,0,0,1,5.22-3.06c2.84.58,5.66,1.28,8.43,2.12a4.29,4.29,0,0,1-1.94,8.35Zm45,11.4q-14-3.45-27.89-7c-3-.76-4.39-3-3.73-5.47s3-3.63,5.94-2.9c4.66,1.13,9.31,2.33,13.95,3.5s9.14,2.28,13.71,3.46c3.19.83,4.62,2.88,3.92,5.51S407,125.9,404,125.14Z"/><path class="cls-1" d="M328.86,239.63c-1.85-1.78-2-3.9-1.67-6.35Q333,185,338.73,136.7c0-.31.12-.62.21-1.08l110.55,27.86c-1.65,4.19-3.26,8.31-4.88,12.42Q434.31,202.11,424,228.31c-3.61,9.15-7.29,18.28-10.81,27.47a6,6,0,0,1-4.3,4Z"/><path class="cls-1" d="M10,166.62c.05-4.17-.24-8.37.23-12.49a30.24,30.24,0,0,1,20.25-25c1.83,5.25,3.38,10.62,5.55,15.72,2.92,6.88,6.16,13.64,9.62,20.27a20,20,0,0,0,5.3,6,8.12,8.12,0,0,0,12.46-2.75c2.49-4.66,3.2-9.83,3.14-15-.1-9.58-.67-19.15-1.06-28.72,0-.85-.16-1.7-.28-2.88,8.54,0,16.11,1.91,22.48,7.46,5.66,4.93,8.83,11.39,10.9,18.43,3.91,13.33,4.21,27,3.65,40.74-.72,17.58-2.9,34.95-9,51.56a66.78,66.78,0,0,1-7.34,14.38c-5.66,8.31-12.82,9.69-21.57,4.71-8-4.54-14-11.24-19.47-18.4a196.54,196.54,0,0,1-31.51-60.14,11.6,11.6,0,0,0-.8-1.62Z"/><path class="cls-1" d="M25.41,3l2.84.29A17.76,17.76,0,0,1,43.74,16.19c1,3.61,1.67,7.31,2.43,11q5.37,25.9,10.7,51.8c2,9.77-2.24,18-10.95,21.52C35.83,104.58,24,98.75,21.7,88.09,17.1,66.85,12.76,45.55,8.5,24.25A17.75,17.75,0,0,1,17.34,5.61c.82-.48,1.62-1,2.42-1.47ZM30.8,20.53a4.46,4.46,0,0,0-5.15-3.66A4.62,4.62,0,0,0,22,22.27a4.51,4.51,0,0,0,5.3,3.45A4.36,4.36,0,0,0,30.8,20.53Z"/><path class="cls-2" d="M55,163.22c-10.21-15.9-15.94-33.5-19.4-52.43a30,30,0,0,0,17.72-3.72c4.38,18.7,6.14,37.19,3,55.88Z"/></svg>