<svg id="Calque_1" data-name="Calque 1" xmlns="http://www.w3.org/2000/svg" viewBox="0 0 512 512"><defs><style>.cls-1{fill:#404040;}.cls-2{fill:#f95623;}</style></defs><path class="cls-1" d="M257.43,318.43C288.81,338,303.12,380,303.12,380,308.85,344.21,258.91,319.17,257.43,318.43ZM132.35,477.66s45.3,5.68,104.46.76a4.43,4.43,0,0,0,3.83-3l1.52-4.49S215.47,482.09,132.35,477.66ZM84.18,341.84l-53.5-.25a4.38,4.38,0,0,0-3.9,2.29L22.34,352l4,1.63,2.5-5.36a8.34,8.34,0,0,1,8-4.81l43.43,2.19a7.85,7.85,0,0,1,5.6,2.83l5.83,7.09-2.18-9.46A5.53,5.53,0,0,0,84.18,341.84Z"/><path class="cls-1" d="M361.81,457.89c-3.29-4.53-5.32-12.14-2.88-17.89a74.94,74.94,0,0,0,4.27-13.19,53.05,53.05,0,0,0-21.06-22.07c-16.56-9.67-33.86-10.14-51.52-2.87-.93-1.66-1.73-3.09-2.71-4.87a59.4,59.4,0,0,1,6.4-2.91,22,22,0,0,0,12.51-32,123.05,123.05,0,0,0-31.37-36.43c-5.55-4.32-12.05-7.45-18.17-11a16.46,16.46,0,0,0-3.73-1.08c4.66,15.41,3,30.44,1.23,45.6-3.49-1.57-6.65-3.2-9.95-4.47-15.2-5.84-31.14-7.91-47.26-9.1a38,38,0,0,0-24.81,6.35c-8,5.44-15.64,11.39-23.27,17.32-1.73,1.34-3.19,2-5.31,1.59-5.93-1.1-11.94-1.8-17.81-3.14-8.55-2-17-4.33-25.51-6.6a6.79,6.79,0,0,1-5.42-6.25,52.25,52.25,0,0,0-1.94-8.36c-1.74-5.76-3.52-7.39-9.51-7.41-18.29,0-36.59.15-54.88.32a3.07,3.07,0,0,0-2.31,1.23c-2.13,4-4.06,8.1-6.12,12.34l3.46,2c20.24,11.78,40.46,23.61,60.78,35.26A28.31,28.31,0,0,0,93.2,393c2.48.55,5.14.39,7.66.83a6.48,6.48,0,0,1,3.47,1.73c6.65,7.05,13.17,14.23,19.74,21.35,1.33,1.44,2.66,2.88,4.21,4.59L118,425.71c-.67-1.13-1.1-1.89-1.56-2.65a55.52,55.52,0,1,0-14.34,72.47,54.47,54.47,0,0,0,21.68-38.11c.13-1.1,1-2.71,1.91-3,5.46-1.73,11-3.15,16.56-4.59a2.27,2.27,0,0,1,2,.47c2.15,3.28,4.14,6.64,6.24,10.1-1.31.78-2.37,1.31-3.32,2-5,3.57-10,7.07-14.84,10.8-1.36,1.07-2.19,2.81-3.41,4.42a12.45,12.45,0,0,0,2.45,1.1,71.2,71.2,0,0,0,7.9,1.23c33.13,2.16,66.25,1.5,99.38,0,2-.09,3.13-.87,3.64-2.75,1.17-4.17,2.4-8.33,3.54-12.54,4.34-16,9.63-31.63,19.27-45.33,4-5.69,8.86-10.81,13.61-16.53,1.21,2,1.92,3.15,2.62,4.28A55.65,55.65,0,1,0,367.75,466C365.76,463.29,363.77,460.6,361.81,457.89ZM85.91,348.51a7.85,7.85,0,0,0-5.6-2.83l-43.43-2.19a8.34,8.34,0,0,0-8,4.81l-2.5,5.36-4-1.63,4.44-8.15a4.38,4.38,0,0,1,3.9-2.29l53.5.25a5.53,5.53,0,0,1,5.38,4.3l2.18,9.46Zm-16,137.64c-17.34.76-32.5-11.75-35.57-29.36-2.94-16.69,7.49-33.63,23.8-38.71,15.51-4.85,34,2.23,40.29,15.71-9.51,3.88-18.87,7.6-28.12,11.54a19.2,19.2,0,0,0-6.33,4.22c-4.89,5.25-3.07,12.74,3.81,14.56a33.75,33.75,0,0,0,12.56.42c7.23-.93,14.35-2.58,21.51-3.93C100.69,473.09,85.2,485.49,69.87,486.15ZM240.64,475.4a4.43,4.43,0,0,1-3.83,3c-59.16,4.92-104.46-.76-104.46-.76,83.12,4.43,109.81-6.75,109.81-6.75Zm16.79-157c1.48.74,51.42,25.78,45.69,61.56C303.12,380,288.81,338,257.43,318.43Zm81,158.68a34.79,34.79,0,0,1-58.77-30.81c1.18-6.86,1.18-6.86,8-7.95,1.76-.28,3.51-.56,5.27-.87s3.3-.64,5.36-1l11,18.72c3.1-1.8,6-3.52,9.28-5.42-3.6-6.23-7.14-12.33-10.55-18.21l15.1-12.68c9,2.26,16.7,8.17,21.6,17.46A34.72,34.72,0,0,1,338.41,477.11Z"/><path class="cls-2" d="M242.16,470.91l-1.52,4.49a4.43,4.43,0,0,1-3.83,3c-59.16,4.92-104.46-.76-104.46-.76C215.47,482.09,242.16,470.91,242.16,470.91Z"/><path class="cls-2" d="M303.12,380s-14.31-42-45.69-61.56C258.91,319.17,308.85,344.21,303.12,380Z"/><path class="cls-2" d="M91.74,355.6l-5.83-7.09a7.85,7.85,0,0,0-5.6-2.83l-43.43-2.19a8.34,8.34,0,0,0-8,4.81l-2.5,5.36-4-1.63,4.44-8.15a4.38,4.38,0,0,1,3.9-2.29l53.5.25a5.53,5.53,0,0,1,5.38,4.3Z"/><path class="cls-1" d="M337.2,248.69c-17.23,0-30.61-10.48-34.91-27.31-.68-2.67-1.35-5.34-2-8a34.08,34.08,0,0,1-9.74-66.6,402.57,402.57,0,0,1-.36-43c0-1.06.09-2.12.15-3.18H73c1.44-3.72,2.6-7.11,4.06-10.35,3.75-8.41,7.56-16.81,11.52-25.13,4.11-8.66,11.1-14,19.9-17.62,16.46-6.75,33.69-9.84,51.22-11.58a304.71,304.71,0,0,1,84.64,2.88c12.66,2.27,25,5.57,36.55,11.5A30.61,30.61,0,0,1,293,61.68c.39.63.81,1.33,1.25,2.09q2.67-17.62,7-35.31a80.17,80.17,0,0,0-21.85-10.8c-21-6.9-42.57-10.39-64.55-11.86a338.32,338.32,0,0,0-69.47,2.35C127.14,10.69,109.4,15,92.46,22.42c-14,6.14-23.35,16.88-30.15,30-5,9.72-9.32,19.82-13.78,29.82-1,2.26-2.06,3.19-4.64,3.15-10.35-.19-20.73.11-31.08-.15-6-.17-10.38,1.84-12.81,7.5V98c1.72,7.75,3.54,15.49,5.17,23.26,1.69,8,4.67,10.48,12.85,10.49h8.23c-1.44,1.94-2.54,3.36-3.58,4.82-18.5,26-15.62,62.61,6.61,85.7a8.19,8.19,0,0,1,2.08,5.13c.19,11,.06,22,.12,33,0,10.12,5.91,16,16.09,16q15.88.06,31.82,0c10-.06,15.76-5.88,15.88-15.82,0-4.48,0-8.95,0-13.71H288.32c0,4.63,0,9.08,0,13.54.1,10.17,5.9,15.93,16.09,16,10.6,0,21.21.06,31.82,0,9.91,0,15.84-6,15.88-15.86,0-3.94,0-7.87,0-11.81ZM82.8,213.37a34.09,34.09,0,1,1,34.07-34.1A34.09,34.09,0,0,1,82.8,213.37Z"/><path class="cls-2" d="M300.34,213.35a34.08,34.08,0,0,1-9.74-66.6c.09,1.63.2,3.28.34,4.91a28.91,28.91,0,0,0,8.11,56C299.45,209.58,299.88,211.45,300.34,213.35Z"/><path class="cls-2" d="M82.8,145.2a34.09,34.09,0,1,0,34.07,34.07A34.08,34.08,0,0,0,82.8,145.2Zm2,62.37c-15.73,1.34-29.4-10.63-30.46-27.65-.93-14.54,9.8-29.15,27.88-29.94,15.12-.67,28.77,10.8,29.81,27.72C113,192.75,101,206.18,84.79,207.57Z"/><path class="cls-1" d="M405.07,239.27q-33.94,0-67.89,0c-13.49,0-23.33-7.83-26.66-20.88a391.94,391.94,0,0,1-11.79-115.13,381.74,381.74,0,0,1,12-78.84A25.83,25.83,0,0,1,336.18,5Q405.56,5,474.94,5c11.54,0,22.38,7.31,24.72,18.49,4.26,20.41,8.62,40.93,10.65,61.64,2,20.2,1.93,40.72,1.3,61-.79,25.29-5.28,50.2-11.93,74.63-3,11.07-13.37,18.39-24.93,18.42C451.52,239.31,428.3,239.27,405.07,239.27ZM406.4,44.1V44H392.13c-4.76,0-9.52-.14-14.27,0-11.27.39-18.66,7.92-18.57,18.74.09,10.44,8.19,18.3,19.13,18.34q27.94.1,55.9,0c10.66,0,19.08-8.29,19.1-18.54S445.49,44.34,435,44.14C425.44,44,415.92,44.1,406.4,44.1Z"/><path class="cls-1" d="M371.29,251.36H440.8c-.19,1.4,0,2.87-.6,3.93-5.82,10.69-3.89,21.42.56,31.66,5.87,13.48,6.1,26.5-.42,39.66-4.72,9.52-4.87,18.95-.29,28.73,6.67,14.22,7.25,28.74.4,43.15-5.22,11-2.54,21.63,1.85,31.75,5.23,12.07,3.59,21.64-5.58,31.45-9,9.66-16.22,21-24.27,31.52-4.58,6-8,6-12.6,0-10.49-13.67-21.06-27.28-31.17-41.22-1.78-2.46-3-7-1.94-9.56,8.61-20.26,8.61-40.25.12-60.51-1.1-2.62-.46-6.21.08-9.23a45.78,45.78,0,0,1,3.28-11.31c6.5-13.95,6.09-27.68-.71-41.3-4.32-8.63-4.38-17.24-.57-26,.78-1.8,1.16-3.77,1.88-5.6,4.46-11.28,6.55-22.57.65-34.06C371.07,253.64,371.34,252.53,371.29,251.36Zm40.46,116.53c0-21,.11-42-.14-63,0-2.35-1.61-5.08-3.31-6.82-.83-.85-4.57-.5-5.28.5a14.84,14.84,0,0,0-2.87,7.9c-.22,41-.21,82-.26,123,0,4.22.43,8.3,5.94,8.42,5.66.12,5.94-3.94,5.93-8.22Q411.68,398.79,411.75,367.89Z"/><rect class="cls-2" x="329.58" y="212.94" width="156.29" height="15"/></svg>