<svg id="Calque_1" data-name="Calque 1" xmlns="http://www.w3.org/2000/svg" viewBox="0 0 1920 1080"><defs><style>.cls-1{fill:#fff;}.cls-2{fill:#1d71b8;}.cls-3{fill:none;stroke:#1d71b8;stroke-miterlimit:10;stroke-width:4px;}</style></defs><rect class="cls-1" width="1920" height="1080"/><path class="cls-2" d="M1130.74-.15c15.15,13.32,31,25.88,47,38.09s32.48,23.89,49.21,35.12,33.79,22,51.23,32,35.16,19.65,53.28,28.43,36.56,16.9,55.43,23.93l7.07,2.66,7.16,2.43c4.77,1.6,9.52,3.29,14.36,4.67l7.25,2.14,3.62,1.07,3.66.94,7.32,1.86,3.66.93c1.22.32,2.44.63,3.68.87,19.58,4.84,39.74,6.64,59.58,10.57,5,.85,9.91,1.93,14.85,3l7.43,1.53,7.38,1.72c4.92,1.14,9.85,2.25,14.72,3.56l7.34,1.9,3.67.95,3.65,1q29.23,8,57.76,18.43t56.2,22.82c36.88,16.59,72.74,35.59,106.67,57.7l6.34,4.18,6.26,4.29c4.2,2.83,8.27,5.84,12.39,8.79,2.08,1.46,4.07,3,6.1,4.54s4,3,6,4.61c4,3.17,8,6.29,11.78,9.62A261.76,261.76,0,0,1,1855,355.09l2.62,2.77,2.5,2.9,2.49,2.9c.83,1,1.56,2,2.35,3l2.32,3.05c.75,1.05,1.42,2.15,2.13,3.22s1.43,2.16,2.08,3.23l2,3.21,3.94,6.44,4.1,6.33c2.67,4.25,5.61,8.34,8.43,12.51,5.84,8.18,11.84,16.27,18.23,24.06s13,15.41,19.86,22.76c1.72,1.83,3.45,3.66,5.22,5.45s3.54,3.58,5.34,5.35c3.62,3.51,7.27,7,11.11,10.24l-.25.32a268.91,268.91,0,0,1-22.35-20.47q-10.66-10.77-20.49-22.36c-6.57-7.7-12.76-15.71-18.79-23.83-2.93-4.13-6-8.19-8.74-12.42l-4.23-6.31-4-6.43-2-3.21c-.68-1.07-1.38-2.07-2.06-3.11s-1.35-2.07-2.09-3.07l-2.29-2.94c-.78-1-1.5-2-2.32-2.92l-2.47-2.81-2.47-2.8-2.61-2.7a258.43,258.43,0,0,0-22.16-20.3,514.21,514.21,0,0,0-48.76-35.4c-16.86-11-34.22-21.19-51.89-30.84s-35.69-18.64-54-27-36.91-16.15-55.75-23.27c-4.73-1.73-9.43-3.54-14.18-5.21l-14.26-5-14.37-4.69c-4.8-1.53-9.63-2.93-14.45-4.4l-3.62-1.09-3.65-1-7.28-2c-4.85-1.39-9.75-2.57-14.63-3.79l-7.34-1.83-7.38-1.63c-4.92-1.07-9.84-2.18-14.8-3.06l-7.43-1.41-3.72-.7-3.73-.59-14.93-2.41-15-2.45-14.86-3c-1.24-.23-2.47-.53-3.69-.84l-3.68-.91-7.36-1.81-3.68-.92-3.64-1-7.29-2.07c-4.89-1.29-9.69-2.89-14.51-4.4l-7.23-2.31-7.15-2.52c-19.07-6.71-37.79-14.45-56.11-23-36.62-17.25-71.4-38.16-104.8-60.92q-6.26-4.27-12.43-8.67c-4.09-3-8.2-5.91-12.26-8.92-8.11-6-16.16-12.13-24.07-18.41S1160.71,26.93,1153,20.36,1137.78,7.12,1130.47.15Z"/><path class="cls-3" d="M1045.8-7s335.44,167.09,529.11,188.61,374.68,240.51,374.68,240.51"/><path class="cls-2" d="M1221.93-18.52A232.77,232.77,0,0,0,1237.6,7.31c2.83,4.17,5.81,8.23,8.79,12.29s6.09,8,9.3,11.92a501.83,501.83,0,0,0,40.74,44.63,599.11,599.11,0,0,0,45.4,39.9c15.76,12.55,32,24.51,48.84,35.58l6.27,4.21c2.09,1.4,4.25,2.7,6.38,4.06l12.78,8c4.31,2.61,8.67,5.13,13,7.7l6.51,3.84c2.16,1.3,4.4,2.46,6.59,3.7l13.23,7.29c1.11.61,2.2,1.23,3.32,1.82l3.36,1.73,6.71,3.45c4.49,2.29,8.94,4.65,13.46,6.88l13.63,6.52a1013.22,1013.22,0,0,0,112.12,45c4.74,1.7,9.56,3.16,14.37,4.68l14.41,4.53,28.9,9.08,7.23,2.26c2.41.76,4.78,1.63,7.17,2.43l14.34,4.94,7.16,2.46c2.39.82,4.74,1.76,7.11,2.63l14.19,5.34,7.09,2.69,7,2.88,14,5.78,3.51,1.44,3.46,1.54,6.92,3.1c4.61,2.08,9.24,4.11,13.83,6.24l13.62,6.69,6.81,3.34c2.26,1.14,4.48,2.36,6.71,3.54l13.4,7.14c4.41,2.48,8.77,5,13.16,7.57A510,510,0,0,1,1883,379.82,381.65,381.65,0,0,1,1928.46,420c7.07,7.26,13.6,15,19.91,23,1.54,2,3,4.06,4.53,6.09l2.26,3.06c.75,1,1.43,2.09,2.14,3.13l4.24,6.31,4,6.49a193.72,193.72,0,0,1,13.39,27.24c3.64,9.42,6.68,19.18,7.62,29.3l-.4,0a86.3,86.3,0,0,0-3.18-14.71c-.79-2.39-1.47-4.81-2.38-7.16l-1.3-3.54-1.44-3.48A191.75,191.75,0,0,0,1963.93,469l-4-6.36-4.3-6.19c-.73-1-1.41-2.08-2.17-3.08l-2.29-3c-1.53-2-3-4-4.59-6-6.38-7.76-13-15.35-20.09-22.45a400.78,400.78,0,0,0-45.55-39.38,507.66,507.66,0,0,0-50.47-33c-4.37-2.49-8.7-5-13.09-7.48L1804,335.08c-2.23-1.17-4.44-2.38-6.68-3.51l-6.78-3.31L1777,321.65l-13.75-6.23-6.87-3.11-3.44-1.55-3.49-1.45-13.94-5.8-7-2.9-7-2.7-14.1-5.4c-2.36-.89-4.69-1.84-7.06-2.67l-7.13-2.5-14.25-5c-2.39-.82-4.74-1.71-7.14-2.47l-7.2-2.31-28.79-9.24-14.43-4.64c-4.81-1.55-9.63-3-14.38-4.78a1016.52,1016.52,0,0,1-112.21-45.67l-13.63-6.61c-4.53-2.25-9-4.65-13.46-7l-6.72-3.5-3.36-1.75c-1.12-.59-2.21-1.23-3.32-1.84l-13.23-7.38c-2.19-1.25-4.43-2.42-6.59-3.74l-6.51-3.88c-4.33-2.6-8.69-5.15-13-7.79l-12.79-8.14c-2.12-1.37-4.28-2.68-6.37-4.09l-6.27-4.26c-16.8-11.21-33-23.31-48.73-36S1310,91.22,1295.59,77a502.25,502.25,0,0,1-40.53-45c-3.19-3.91-6.18-8-9.23-12s-5.92-8.18-8.73-12.38a232.54,232.54,0,0,1-15.53-26Z"/><path class="cls-2" d="M1246.79-17.28c11.23,14.09,24.48,26.43,38,38.22a511,511,0,0,0,42.92,32.69c14.82,10.2,30.16,19.64,45.84,28.45,7.81,4.45,15.79,8.63,23.72,12.86,8.06,4,16,8.21,24.2,12,4.08,1.89,8.08,4,12.2,5.76l12.32,5.55c2,1,4.12,1.82,6.19,2.69l6.23,2.62c4.16,1.72,8.27,3.57,12.48,5.17,8.39,3.27,16.74,6.67,25.24,9.67l12.72,4.58,12.83,4.25a941.2,941.2,0,0,0,104.6,27.32c35.37,7.15,70.53,16.37,104.16,29.87l12.55,5.19c2.08.89,4.2,1.69,6.26,2.64l6.15,2.88,12.31,5.76,12,6.32,6,3.16,5.86,3.44c3.9,2.32,7.83,4.58,11.69,7,7.56,5,15.27,9.79,22.5,15.3a326,326,0,0,1,76.18,77,275.21,275.21,0,0,1,26.61,47.3c1.88,4.12,3.5,8.35,5.16,12.56l2.27,6.4c.77,2.13,1.4,4.3,2.1,6.45a162.59,162.59,0,0,1,6.14,26.4l-.4.05a172.84,172.84,0,0,0-7-26.05c-.77-2.12-1.46-4.26-2.28-6.35l-2.45-6.28c-1.79-4.13-3.46-8.3-5.42-12.34s-4-8.08-6-12.08c-1-2-2.17-3.93-3.25-5.9s-2.15-3.94-3.33-5.85c-4.63-7.69-9.5-15.24-14.77-22.51a317.84,317.84,0,0,0-35-40.77c-3.26-3.08-6.46-6.22-9.76-9.26L1844.57,276l-1.27-1.1-1.32-1.05-2.63-2.1-5.26-4.18-2.63-2.1-1.32-1.05-1.36-1-5.45-3.94c-7.17-5.4-14.77-10.17-22.25-15.12-3.82-2.36-7.71-4.59-11.57-6.89l-5.78-3.44-5.94-3.17-11.87-6.35-12.16-5.8-6.08-2.91c-2-1-4.13-1.77-6.19-2.66l-12.42-5.25c-33.3-13.62-68.06-23.33-103.22-31.22s-70.14-17.25-104.53-28.22l-12.9-4.12-12.81-4.4c-8.58-2.82-17-6-25.5-9.15-4.26-1.51-8.42-3.27-12.63-4.91l-6.29-2.5c-2.1-.83-4.21-1.66-6.28-2.56-8.3-3.56-16.66-7-24.83-10.88-8.25-3.71-16.32-7.79-24.41-11.82l-12-6.35-3-1.59-3-1.68-5.9-3.35c-15.69-9-31-18.61-45.85-29a468.91,468.91,0,0,1-42.55-33.63q-10.1-9.06-19.47-18.87a196.23,196.23,0,0,1-17.5-20.7Z"/><path class="cls-2" d="M1380.17-18.44a39.64,39.64,0,0,0,2.75,9.71A78.1,78.1,0,0,0,1387.31.4a123.54,123.54,0,0,0,11.5,16.68,208.56,208.56,0,0,0,29.06,28.24l4,3.17c1.32,1.06,2.64,2.12,4,3.09l8.2,6c2.79,1.92,5.62,3.78,8.43,5.67,1.41.93,2.79,1.91,4.23,2.81l4.33,2.66c2.89,1.77,5.75,3.59,8.66,5.31l8.84,5,4.41,2.51,4.49,2.39,9,4.75a717.52,717.52,0,0,0,74.43,32.75l4.75,1.83c1.57.62,3.16,1.22,4.76,1.77l9.58,3.44c6.39,2.29,12.75,4.66,19.21,6.74l19.3,6.46,19.44,6.07c3.24,1,6.46,2.05,9.72,3l9.77,2.86,19.56,5.69,19.67,5.31,9.83,2.66c3.28.89,6.58,1.66,9.88,2.5,13.18,3.27,26.33,6.68,39.59,9.63l19.88,4.5c6.63,1.51,13.24,3.18,19.85,4.76,1.67.37,3.29.88,4.92,1.36l4.9,1.45,9.79,2.91,9.63,3.4,4.82,1.69,2.41.84,2.36,1,9.46,3.86c1.57.66,3.16,1.26,4.72,2l4.61,2.18,9.24,4.36c3,1.51,6,3.2,9,4.8a314,314,0,0,1,34.55,21.79l8.1,6.23c1.34,1.05,2.72,2.06,4,3.15l3.88,3.33,7.75,6.67,7.39,7.08,3.7,3.53,3.51,3.72,7,7.44,6.64,7.79,3.32,3.9,3.13,4.05,6.25,8.11,5.87,8.39,2.92,4.21,2.73,4.33,5.45,8.66,5.07,8.9,2.54,4.44,2.35,4.55,4.7,9.1,4.33,9.28,2.17,4.63,2,4.72,4,9.44,3.64,9.57,1.81,4.79,1.66,4.84,3.29,9.68c1,3.26,2,6.53,3,9.79l1.49,4.89c.5,1.63.91,3.29,1.37,4.93l2.68,9.88c3.31,13.23,6.38,26.52,8.77,39.95a693.9,693.9,0,0,1,9.9,81.14c.26,3.4.42,6.8.59,10.2l.49,10.21c.2,6.81.51,13.61.56,20.42.3,13.62.14,27.25-.18,40.86s-1,27.21-1.9,40.8-2,27.15-3.39,40.69c-2.74,27.08-6.48,54.05-11,80.86q-3.42,20.11-7.6,40.09c-2.79,13.31-5.75,26.59-9.24,39.73l-.39-.1c6.2-26.45,11-53.21,15.23-80q3.12-20.13,5.61-40.35c1.64-13.48,3.05-27,4.32-40.49,4.94-54.06,6.29-108.49,2.69-162.6l-.73-10.14c-.26-3.38-.6-6.75-.89-10.12-.55-6.76-1.38-13.48-2.11-20.22-1.68-13.45-3.57-26.87-6-40.19s-5.29-26.57-8.51-39.72l-2.61-9.82c-.45-1.63-.85-3.27-1.33-4.89l-1.46-4.87c-1-3.24-1.92-6.49-2.93-9.72l-3.22-9.63-1.62-4.81-1.78-4.75-3.55-9.51-3.88-9.38-1.94-4.69-2.11-4.61-4.22-9.24-4.57-9.05-2.29-4.53-2.48-4.43-5-8.86-5.33-8.63-2.67-4.32-2.86-4.19-5.7-8.39-6.09-8.12-3.05-4.06-3.24-3.9-6.48-7.81-6.87-7.48-3.44-3.74-3.62-3.55-7.26-7.11-7.62-6.72-3.82-3.35c-1.29-1.09-2.65-2.11-4-3.17l-8-6.29c-2.71-2-5.52-3.92-8.28-5.89s-5.5-4-8.42-5.69l-8.64-5.36-2.17-1.33-2.22-1.23-4.47-2.44A319.6,319.6,0,0,0,1805.31,190c-6.61-1.53-13.18-3.16-19.82-4.63L1765.57,181c-13.31-2.76-26.52-6-39.77-9.07-3.31-.79-6.63-1.52-9.92-2.36l-9.89-2.53-19.77-5-19.67-5.43-9.83-2.73c-3.28-.91-6.52-1.94-9.78-2.92L1627.41,145,1608,138.6c-6.48-2.08-12.87-4.44-19.28-6.73s-12.81-4.6-19.13-7.14A718.41,718.41,0,0,1,1495,91.42l-9-4.82c-1.49-.82-3-1.6-4.49-2.43l-4.41-2.59-8.83-5.17c-2.9-1.77-5.76-3.64-8.64-5.45l-4.32-2.75c-1.43-.92-2.82-1.92-4.23-2.88-2.8-1.94-5.62-3.85-8.4-5.82l-8.18-6.15c-1.38-1-2.7-2.08-4-3.17l-4-3.25a199.88,199.88,0,0,1-28.79-29A124.71,124.71,0,0,1,1386.49.85a74.51,74.51,0,0,1-4.21-9.34,39.75,39.75,0,0,1-2.5-9.93Z"/><path class="cls-2" d="M1489-33.7c2.19,4.65,4.73,9.14,7.35,13.57s5.38,8.78,8.24,13.06q8.61,12.81,18.21,24.92a500.69,500.69,0,0,0,41.37,45.74,581.39,581.39,0,0,0,46.27,40.78q24.21,19.14,49.94,36.25c4.31,2.8,8.53,5.75,12.89,8.49l13.09,8.2c2.16,1.39,4.39,2.67,6.61,4l6.65,3.93,6.65,3.92c2.23,1.3,4.5,2.51,6.75,3.77l13.51,7.49,13.72,7.13,6.87,3.54,7,3.34,13.94,6.68c4.68,2.14,9.4,4.21,14.1,6.32s9.39,4.27,14.19,6.15L1825,225.29a400.23,400.23,0,0,1,55.07,28.39,394.83,394.83,0,0,1,50.13,36.52,440.4,440.4,0,0,1,44.25,43.54A544,544,0,0,1,2045,435.65a702.49,702.49,0,0,1,48.54,114c6.48,19.63,12,39.55,16.89,59.63q3.63,15.06,6.55,30.28c2,10.13,3.71,20.31,5,30.56l-.4.05c-3.28-20.35-7.93-40.46-13.09-60.4s-11.23-39.64-17.89-59.12q-5-14.61-10.57-29t-11.75-28.54c-4.1-9.43-8.43-18.76-12.9-28s-9.23-18.38-14.12-27.43-10-17.94-15.34-26.74l-4.07-6.54-2-3.28-2.09-3.23-4.2-6.46-4.3-6.39c-1.42-2.15-2.91-4.24-4.39-6.34s-2.94-4.21-4.45-6.29c-3.06-4.12-6.06-8.3-9.23-12.34-6.22-8.18-12.81-16.07-19.52-23.85-27.06-30.9-58-58.52-92.72-80.69l-6.51-4.13-6.65-3.92c-4.39-2.68-9-5-13.46-7.55-2.24-1.27-4.57-2.36-6.86-3.54s-4.58-2.34-6.9-3.46l-7-3.22c-2.34-1.08-4.68-2.17-7.06-3.13l-28.57-11.88c-4.79-1.93-9.48-4.07-14.22-6.12s-9.46-4.12-14.17-6.24l-14-6.58-7-3.29-6.92-3.47-13.88-6.88L1712,174.86c-18.18-9.8-36.1-20.13-53.4-31.46s-34.18-23.32-50.3-36.28A586.56,586.56,0,0,1,1562,65.77l-5.43-5.54c-1.8-1.86-3.64-3.68-5.36-5.61-3.49-3.82-7-7.57-10.41-11.51l-5.09-5.85-5-6c-1.67-2-3.27-4-4.86-6s-3.24-4-4.77-6.12c-6.31-8.19-12.17-16.73-17.69-25.46q-4.14-6.55-7.91-13.34a154.39,154.39,0,0,1-6.91-13.87Z"/><path class="cls-2" d="M-53,340.87c21.87-3.33,43.91-5.29,66-6.77s44.17-2.22,66.29-2.54q66.33-.68,132.6,4.25T343.71,351l16.39,2.58,8.2,1.3,8.16,1.49,32.64,6,32.48,6.78,8.12,1.7,8.08,1.89,16.15,3.8,16.14,3.81c2.7.61,5.37,1.36,8,2.05l8,2.12c10.69,2.84,21.4,5.59,32.07,8.5,21.21,6.27,42.55,12.11,63.53,19.11,42.22,13.2,83.7,28.6,124.89,44.67l30.66,12.62,7.67,3.16,3.83,1.58c1.28.53,2.53,1.11,3.8,1.67l15.16,6.71L818.07,496,848,510.26c10,4.79,20,9.42,29.77,14.61L907.27,540c9.91,4.92,19.52,10.4,29.21,15.71l29,16c76.86,43.73,151.91,90.71,224.53,141.24q27.23,18.94,54,38.52t53.11,39.76q26.36,20.14,52.21,40.94t51.41,41.91c34,28.22,67.7,56.88,101.68,85.11s68.5,55.83,105.22,80.3c9.2,6.07,18.52,12,28,17.59,2.35,1.43,4.77,2.75,7.15,4.14s4.77,2.76,7.21,4l7.26,3.94,7.35,3.78c9.84,5,19.82,9.66,30,13.84,5.06,2.19,10.24,4.06,15.38,6.07,5.2,1.81,10.36,3.76,15.63,5.38a423.78,423.78,0,0,0,64.3,15.3,527.15,527.15,0,0,0,66,5.75v.4a511.88,511.88,0,0,1-66.13-4.87,411.51,411.51,0,0,1-64.73-14.66c-5.31-1.58-10.51-3.48-15.76-5.26-5.17-2-10.4-3.81-15.51-6-10.29-4.11-20.37-8.74-30.3-13.64l-7.43-3.73-7.33-3.9c-2.46-1.28-4.87-2.65-7.28-4s-4.86-2.68-7.23-4.1c-9.59-5.55-19-11.45-28.25-17.49-37-24.38-71.73-51.94-106-79.93-17.11-14-34-28.21-51-42.39s-33.91-28.35-51-42.41C1330,821,1260.31,766.66,1187.89,716s-147-98-223.46-142.42l-28.9-16.2c-9.64-5.38-19.2-10.93-29.06-15.9-19.62-10.15-39.05-20.7-59.09-30l-29.87-14.37-30.27-13.47L772.1,477c-1.27-.55-2.52-1.12-3.8-1.65l-3.83-1.57-7.68-3.12L726.11,458.1c-5.09-2.14-10.29-4-15.46-6l-15.51-5.82-15.52-5.81c-2.59-.95-5.15-2-7.77-2.87L664,435l-31.37-10.68c-2.62-.88-5.21-1.83-7.85-2.63l-7.91-2.46-15.82-4.92c-21-6.8-42.38-12.45-63.61-18.53-10.67-2.81-21.39-5.47-32.09-8.22l-8-2c-2.68-.67-5.34-1.4-8-2l-16.14-3.7L457,376.07,449,374.22l-8.11-1.66-32.44-6.68-32.57-5.95-8.15-1.49-8.17-1.32-16.35-2.63q-65.42-10.31-131.51-15.62c-44-3.48-88.18-5.35-132.35-5.21-22.08.18-44.17.6-66.22,1.8s-44.1,2.88-66,5.8Z"/><path class="cls-2" d="M-40.32,402.89c22.06-4.45,44.45-6.85,66.86-8.68,5.61-.39,11.21-.85,16.82-1.19l16.85-.87c5.61-.28,11.23-.37,16.85-.55l8.43-.23c2.82-.06,5.63-.05,8.44-.08A1335.55,1335.55,0,0,1,228.69,397c44.8,4.15,89.39,10.3,133.71,17.93L395.59,421l4.14.78,4.13.87,8.25,1.73,16.51,3.47,16.5,3.48,16.41,3.89,16.42,3.9,8.2,1.95c2.73.66,5.48,1.26,8.19,2L527,451.71c5.42,1.47,10.88,2.83,16.28,4.38l16.19,4.72,32.38,9.43,32.14,10.21c21.5,6.57,42.65,14.22,63.92,21.47l8,2.74c1.33.46,2.67.9,4,1.38l3.95,1.46,15.82,5.83L751.22,525c84,31.93,166.46,68,247.23,107.55l60.22,30.35c2.5,1.28,5,2.5,7.51,3.84l7.43,4,14.87,7.95,29.72,15.93,14.85,8,14.78,8.09,29.56,16.18,59.1,32.42c9.86,5.38,19.67,10.85,29.57,16.17l29.64,16,59.3,32c19.73,10.73,39.6,21.22,59.41,31.81l59.47,31.73,59.66,31.34,29.84,15.67,29.95,15.45L1623.27,965c10,5.14,20,10.33,30,15.34,20.08,10.09,40.11,20.25,60.21,30.27l30.26,14.84,15.11,7.44,7.56,3.71,7.6,3.63c20.3,9.62,40.5,19.47,61,28.7,10.22,4.67,20.39,9.42,30.7,13.88l15.42,6.79c2.57,1.11,5.13,2.29,7.72,3.36l7.77,3.24,15.55,6.48,15.7,6.11c10.5,3.92,21,8,31.91,10.6l-.06.39c-11-2.5-21.58-6.36-32.16-10.16l-15.79-5.93-15.64-6.3-7.82-3.15c-2.61-1-5.18-2.18-7.77-3.27l-15.51-6.61c-10.38-4.32-20.59-9-30.85-13.59-20.58-9.06-40.86-18.73-61.26-28.17l-7.64-3.57-7.59-3.65-15.19-7.31-30.37-14.65c-80.74-39.54-160.61-80.8-240.21-122.56l-59.49-31.74c-19.81-10.6-39.69-21.08-59.38-31.9l-59.21-32.24-29.6-16.12c-9.88-5.35-19.68-10.85-29.53-16.26l-59-32.63-29.48-16.34-14.74-8.17-14.8-8-29.6-16.07-14.8-8.06-7.39-4c-2.46-1.35-5-2.59-7.47-3.89l-59.93-30.81-60.64-29.38c-20.4-9.41-40.88-18.63-61.34-27.9-20.64-8.87-41.35-17.58-62-26.37l-31.35-12.35-15.68-6.16c-5.24-2-10.43-4.18-15.73-6.05l-31.65-11.56c-10.55-3.83-21.06-7.8-31.75-11.26C666,496.41,644.81,489,623.27,482.57l-32.19-9.92-32.42-9.15-16.21-4.57c-5.4-1.51-10.86-2.82-16.29-4.24l-32.63-8.37c-2.71-.73-5.45-1.33-8.18-2l-8.2-1.91-16.4-3.81-16.4-3.82-16.47-3.47L411.4,427.9l-8.24-1.73-4.12-.86-4.14-.77-33.1-6.16c-44.22-7.76-88.7-14.05-133.39-18.33s-89.57-6.75-134.47-6.66c-2.8,0-5.61,0-8.42,0l-8.41.16-8.42.17c-2.81.06-5.61.06-8.42.2l-16.82.66c-5.61.26-11.21.66-16.81,1-22.39,1.55-44.79,3.67-66.88,7.71Z"/><path class="cls-2" d="M-35.23,449.72c21.46-1.49,42.95-2.12,64.45-2.5s43-.38,64.51,0c43,.78,86,2.66,128.89,5.89,85.78,6.46,171.3,17.13,255.85,33.16a2149.51,2149.51,0,0,1,250.08,63.09C810.46,575.56,890.94,606.52,968.4,644s152,81.15,221.58,131.89c8.78,6.22,17.26,12.85,25.86,19.34l6.42,4.88c2.15,1.62,4.22,3.34,6.33,5l12.62,10.07c16.8,13.45,33.44,27,50.16,40.51,8.36,6.75,16.85,13.34,25.25,20l25.28,20,25.5,19.7,12.75,9.85c4.25,3.29,8.58,6.48,12.85,9.72l25.73,19.4c4.27,3.27,8.64,6.38,13,9.57l13,9.52,13,9.51c4.34,3.17,8.75,6.23,13.12,9.35,8.77,6.2,17.48,12.48,26.28,18.64,35.25,24.55,71.1,48.25,107.86,70.46l6.88,4.18,3.45,2.08,3.48,2,13.94,8.06,7,4,7.06,3.87,14.12,7.73c2.34,1.32,4.74,2.52,7.12,3.75l7.16,3.67c4.79,2.44,9.52,5,14.39,7.22L1704,1135l14.73,6.5c19.74,8.38,39.91,15.87,60.76,20.94,10.45,2.32,21,4.19,31.76,4.49l4,.08c1.34,0,2.67-.13,4-.19a35.57,35.57,0,0,0,4-.33c1.32-.19,2.65-.34,4-.55l3.91-.87c1.28-.38,2.55-.79,3.81-1.21a22.36,22.36,0,0,0,6.86-3.94l.3.26a22.72,22.72,0,0,1-7,4.17q-1.9.68-3.84,1.29l-3.95.94c-1.33.23-2.67.41-4,.61a34,34,0,0,1-4,.4c-1.35.08-2.69.2-4,.25l-4,0c-10.8-.17-21.48-1.91-32-4.11-21-4.84-41.38-12.08-61.26-20.34-39.72-16.69-77.67-37.23-114.64-59.22s-73-45.59-108.44-70c-8.85-6.12-17.62-12.35-26.42-18.53-4.38-3.12-8.81-6.17-13.16-9.33l-13-9.5-13-9.49c-4.33-3.19-8.72-6.29-13-9.55l-25.81-19.35c-4.3-3.24-8.63-6.43-12.88-9.72l-12.76-9.87-25.52-19.73-25.29-20-12.63-10c-4.2-3.35-8.44-6.66-12.59-10.08-16.68-13.55-33.32-27.21-50-40.68l-12.55-10.08c-2.1-1.67-4.17-3.39-6.3-5l-6.39-4.89c-8.55-6.49-17-13.13-25.73-19.36-69.24-50.78-143.27-95-220.31-133q-57.83-28.44-117.81-52.22l-15-5.86L827.11,585l-7.55-2.81c-10.08-3.74-20.13-7.54-30.28-11.06l-15.19-5.37-15.29-5.11c-5.1-1.68-10.18-3.44-15.3-5l-15.36-4.87-7.68-2.44-7.71-2.33-15.44-4.65c-5.13-1.58-10.31-3-15.47-4.5l-15.5-4.41-15.56-4.18c-5.19-1.38-10.36-2.83-15.58-4.12-10.42-2.62-20.8-5.37-31.26-7.82q-62.66-15.13-126.08-26.68L462,486.71c-5.29-.95-10.59-1.81-15.88-2.72-10.58-1.84-21.19-3.49-31.79-5.21-21.23-3.27-42.48-6.39-63.78-9.16-10.64-1.46-21.31-2.69-32-4s-21.34-2.47-32-3.54-21.37-2.14-32.06-3.16-21.4-1.9-32.11-2.7c-21.42-1.65-42.85-3.13-64.3-4.29s-42.92-2-64.4-2.56c-42.95-1.05-86-1.28-128.89.77Z"/><path class="cls-2" d="M-46.59,373.78C-25.76,375.43-5,377.61,15.78,380s41.49,4.91,62.19,7.76c41.4,5.68,82.71,12,123.87,19.29C284.12,421.62,366,439,446.73,460.63q60.54,16.32,120.19,35.7c19.86,6.51,39.64,13.24,59.28,20.38,9.85,3.49,19.62,7.18,29.42,10.8s19.54,7.42,29.22,11.35c4.84,1.95,9.72,3.84,14.54,5.85l14.47,6c4.83,2,9.61,4.12,14.41,6.17l7.2,3.09c2.4,1,4.78,2.11,7.17,3.16,19.15,8.37,38,17.34,56.76,26.6l14,7.06,13.88,7.29c4.64,2.39,9.22,4.92,13.8,7.43s9.2,5,13.71,7.61l13.6,7.79L881.82,635c4.5,2.65,8.9,5.48,13.32,8.27s8.87,5.54,13.2,8.47c17.56,11.35,34.51,23.67,51.14,36.32l24.91,19,24.77,19.21q49.44,38.5,98.23,77.84c32.61,26.11,65.12,52.34,98.24,77.74l12.43,9.51,12.53,9.37,6.26,4.69,6.32,4.61,12.65,9.2c4.24,3,8.53,6,12.79,9s8.52,6,12.87,8.88l13,8.72c4.35,2.87,8.76,5.65,13.13,8.49a974,974,0,0,0,109.28,60.61c4.67,2.32,9.44,4.42,14.18,6.59l14.24,6.46,14.39,6.14,7.19,3.06,3.6,1.53,3.63,1.46,14.53,5.81,7.26,2.9c2.42,1,4.88,1.85,7.32,2.78l14.64,5.5,7.33,2.75,7.38,2.6c39.29,14.06,79,26.85,119.11,38.64,20.06,5.78,40.1,11.66,60.25,17.13,10.07,2.78,20.13,5.58,30.23,8.21l30.28,8.06-.1.39c-20.26-5.08-40.56-10-60.74-15.41-20.23-5.21-40.36-10.81-60.48-16.44l-30.1-8.76c-10-3-20-6.11-30-9.15-19.93-6.27-39.81-12.75-59.52-19.72l-7.41-2.57-7.35-2.71-14.72-5.43c-2.45-.92-4.91-1.78-7.34-2.74l-7.3-2.87-14.6-5.73-3.65-1.45-3.62-1.51-7.23-3-14.47-6.07-14.32-6.41c-4.78-2.14-9.57-4.22-14.27-6.53l-14.17-6.75-3.54-1.69-3.5-1.77-7-3.56-7-3.57c-2.32-1.2-4.68-2.35-7-3.62l-13.8-7.48c-2.29-1.27-4.62-2.46-6.88-3.79l-6.8-3.91c-4.53-2.62-9.09-5.19-13.59-7.86l-13.41-8.16c-2.23-1.37-4.49-2.69-6.69-4.11l-6.61-4.23c-4.4-2.83-8.83-5.61-13.19-8.5l-13-8.77c-4.37-2.88-8.64-5.9-12.91-8.91s-8.58-6-12.83-9l-12.69-9.23-6.33-4.63-6.28-4.7-12.54-9.42-12.41-9.57c-33.1-25.55-65.53-51.89-98-78.11s-65-52.42-97.84-78.28l-24.64-19.33-24.74-19.21c-16.5-12.78-33.26-25.18-50.69-36.66A1017.08,1017.08,0,0,0,798.76,591q-56-28.05-114.43-50.84C645.51,524.77,606,511,566.24,498.45c-19.89-6.35-39.91-12.28-60-18.08s-40.22-11.2-60.4-16.52Q324.71,432.22,201.3,410c-41.1-7.4-82.29-14.25-123.62-20.23s-82.75-11.45-124.3-15.63Z"/><path class="cls-2" d="M454.31,1080a460,460,0,0,1-34.12,174,457.54,457.54,0,0,1-97.95,148.19,453.1,453.1,0,0,1-147.54,99.53,455.5,455.5,0,0,1-174.7,35A455.56,455.56,0,0,1-174.78,1502a457.79,457.79,0,0,1-148-99.23,456,456,0,0,1-56.65-69.24,455.31,455.31,0,0,1-42-79A454.47,454.47,0,0,1-455.43,1080a459.57,459.57,0,0,1,9-88.8l.5-2.75.62-2.72,1.28-5.44,2.55-10.88.63-2.71c.22-.91.5-1.8.75-2.69l1.55-5.37,3.08-10.74c.94-3.6,2.27-7.08,3.43-10.62l3.59-10.57c1.12-3.56,2.63-7,4-10.44l4.11-10.39a459.47,459.47,0,0,1,98.72-147.52,459.67,459.67,0,0,1,147.33-99.19A455.25,455.25,0,0,1,0,623.86a452,452,0,0,1,174.62,34.56,451.77,451.77,0,0,1,147.56,99.4,456.78,456.78,0,0,1,98,148.15A460.3,460.3,0,0,1,454.31,1080Zm-.5,0A456,456,0,0,0,445,991.47a444.93,444.93,0,0,0-26.07-85A453.93,453.93,0,0,0,320,760a461.11,461.11,0,0,0-68.8-55.94l-9.37-6-4.68-3-2.33-1.48c-.78-.5-1.6-.93-2.4-1.4l-9.64-5.5L217.92,684l-2.4-1.38-2.47-1.26-9.88-5-4.94-2.52-2.48-1.25-2.53-1.14-10.11-4.56-5.06-2.27c-.84-.38-1.67-.78-2.53-1.13l-2.58-1a456.09,456.09,0,0,0-84.78-25.66A462.56,462.56,0,0,0,0,628a459.58,459.58,0,0,0-88.26,8.34,449.79,449.79,0,0,0-85,25.38,452.82,452.82,0,0,0-78.44,41.56,453,453,0,0,0-68.81,56.2,451.88,451.88,0,0,0-56.41,68.67,452.21,452.21,0,0,0-41.83,78.39,450.9,450.9,0,0,0-34,173.44,457.89,457.89,0,0,0,9,88.26,455.14,455.14,0,0,0,26,84.76,455.05,455.05,0,0,0,98.31,146.39,452.82,452.82,0,0,0,146.63,97.73,452.12,452.12,0,0,0,84.7,25.6A457.67,457.67,0,0,0,0,1531.4a457.13,457.13,0,0,0,88.1-8.55,454.42,454.42,0,0,0,84.76-25.52l2.58-1c.86-.35,1.69-.75,2.53-1.12l5.06-2.27,10.11-4.54,2.53-1.14,2.48-1.25,4.94-2.51,9.88-5,2.47-1.26,2.41-1.37,4.82-2.74,9.64-5.49c.79-.47,1.61-.9,2.39-1.39l2.34-1.49,4.68-3,9.37-6a459.19,459.19,0,0,0,68.82-55.89,453.35,453.35,0,0,0,99-146.4,445.39,445.39,0,0,0,26.09-85A456.58,456.58,0,0,0,453.81,1080Z"/><path class="cls-2" d="M404.06,1080a407.66,407.66,0,0,1-7.7,78.85,402.22,402.22,0,0,1-22.92,75.83A406.22,406.22,0,0,1,286,1366a409.77,409.77,0,0,1-61.17,50.47,403.91,403.91,0,0,1-69.85,37.64A402.21,402.21,0,0,1,79,1477.31a409.68,409.68,0,0,1-79,8,410.6,410.6,0,0,1-79.13-7.54,403.74,403.74,0,0,1-76.17-22.84,406.33,406.33,0,0,1-131.93-87.7,406.67,406.67,0,0,1-88.34-131.67,404.31,404.31,0,0,1-23.15-76.25,410.78,410.78,0,0,1-7.84-79.31,411,411,0,0,1,7.83-79.32,404.57,404.57,0,0,1,23.16-76.25,406.32,406.32,0,0,1,88.33-131.67,406,406,0,0,1,131.94-87.7,403.52,403.52,0,0,1,76.17-22.84A410.6,410.6,0,0,1,0,674.68a409.68,409.68,0,0,1,79,8A402.53,402.53,0,0,1,155,705.92,406.45,406.45,0,0,1,286,794a406.05,406.05,0,0,1,87.48,131.28,402.22,402.22,0,0,1,22.92,75.83A407.66,407.66,0,0,1,404.06,1080Zm0,0a408.26,408.26,0,0,0-7.79-78.83,401.77,401.77,0,0,0-23-75.78,404.24,404.24,0,0,0-87.79-130.86,403.74,403.74,0,0,0-131.13-87.15,400.21,400.21,0,0,0-75.7-22.69A407,407,0,0,0,0,677.19a406.89,406.89,0,0,0-78.55,7.95A400.4,400.4,0,0,0-154,708.24a401.27,401.27,0,0,0-69.41,37.41,407,407,0,0,0-60.8,50.16,403.77,403.77,0,0,0-86.94,130.47,399.67,399.67,0,0,0-22.78,75.36,406.47,406.47,0,0,0-7.66,78.36,405.68,405.68,0,0,0,7.66,78.36,398.94,398.94,0,0,0,22.78,75.36A403.35,403.35,0,0,0-284.2,1364.2,404,404,0,0,0-154,1451.77a400,400,0,0,0,75.44,23.1,406.89,406.89,0,0,0,78.55,8,407,407,0,0,0,78.64-7.5,400.21,400.21,0,0,0,75.7-22.69,403.66,403.66,0,0,0,131.13-87.16,404,404,0,0,0,87.79-130.86,401.77,401.77,0,0,0,23-75.78A407.47,407.47,0,0,0,404.06,1080Z"/><path class="cls-2" d="M315.72,1228.47a351.77,351.77,0,0,1-80.57,109.82,351,351,0,0,1-116.52,71,351,351,0,0,1-135.07,21.11,347.23,347.23,0,0,1-68.09-9.71,354.89,354.89,0,0,1-64.9-22.9,351.62,351.62,0,0,1-110.32-81.28A351.74,351.74,0,0,1-330.33,1199a352.06,352.06,0,0,1-20.2-135.46A351.18,351.18,0,0,1-317.3,930.78a350.79,350.79,0,0,1,81.35-109.95,351.33,351.33,0,0,1,117.22-70.36,351.18,351.18,0,0,1,135.14-20.2,350.52,350.52,0,0,1,132.49,33.1,350.28,350.28,0,0,1,109.62,81.27,350,350,0,0,1,70,117,350.74,350.74,0,0,1,20.06,134.71A349.34,349.34,0,0,1,315.72,1228.47Zm-.45-.21A348.75,348.75,0,0,0,348,1096.33,348.38,348.38,0,0,0,327.5,962a349,349,0,0,0-70.36-116.1,347.82,347.82,0,0,0-109.31-80.26,347.61,347.61,0,0,0-131.56-32.5,348.15,348.15,0,0,0-133.9,20.39,347.79,347.79,0,0,0-115.88,70,347.12,347.12,0,0,0-80.17,109,346.92,346.92,0,0,0-32.38,131.27,347.27,347.27,0,0,0,20.39,133.58A347.49,347.49,0,0,0-255.91,1313a346.48,346.48,0,0,0,108.61,80.25,348.79,348.79,0,0,0,131.06,33,348.33,348.33,0,0,0,134-19.48,348,348,0,0,0,116.58-69.37,344.63,344.63,0,0,0,45.88-50.52A352.28,352.28,0,0,0,315.27,1228.26Z"/><circle class="cls-2" cx="-0.36" cy="1077.85" r="248.17"/><path class="cls-2" d="M-35.23,480.2c19.36-1.3,38.75-1.86,58.14-2.19s38.8-.3,58.2.09,38.79,1,58.17,2,38.74,2.16,58.08,3.77c77.33,6.42,154.43,17.13,230.12,34.56l14.18,3.32,14.12,3.53c4.72,1.14,9.4,2.43,14.09,3.66s9.39,2.46,14.06,3.8c18.72,5.12,37.28,10.83,55.72,16.87s36.7,12.65,54.79,19.67,36,14.55,53.63,22.61c4.39,2,8.82,4,13.19,6.14l13.07,6.39c2.19,1,4.34,2.17,6.5,3.29l6.46,3.34,6.47,3.33,6.39,3.47c4.25,2.34,8.55,4.59,12.76,7l12.61,7.27c4.2,2.42,8.3,5,12.45,7.53l6.21,3.8,6.11,4,6.1,4c2,1.32,4.08,2.63,6.07,4l12,8.26c4,2.78,7.85,5.69,11.79,8.53,2,1.44,3.94,2.83,5.86,4.31l5.76,4.46,5.75,4.46,2.88,2.24,2.8,2.32,11.23,9.27c7.28,6.43,14.68,12.73,21.66,19.49A1019.58,1019.58,0,0,0,929.77,795l5.73,4.46c1.91,1.48,3.87,2.91,5.8,4.37l11.63,8.69c7.84,5.67,15.66,11.38,23.63,16.87,4,2.77,7.94,5.55,12,8.24l12,8.12c8.1,5.29,16.17,10.64,24.38,15.77s16.45,10.22,24.69,15.3,16.62,9.94,25,14.73,16.84,9.56,25.28,14.3,17,9.3,25.57,13.79,17.18,8.93,25.77,13.39,17.29,8.73,26,13q26.09,12.76,52.57,24.72a2319.18,2319.18,0,0,0,216.35,84.79q55.1,18.55,111,34.68c37.27,10.67,74.73,20.72,112.55,29.22l-.08.39c-19-3.86-37.89-8.3-56.72-12.94s-37.6-9.53-56.3-14.72q-56.07-15.52-111.41-33.66t-109.65-39.07q-54.33-20.91-107.46-44.8c-70.75-31.95-139.68-68.15-205.18-109.89-8.22-5.17-16.3-10.57-24.4-15.9s-16.1-10.86-24-16.52-15.77-11.33-23.61-17.07l-11.61-8.78c-1.92-1.48-3.88-2.92-5.78-4.43l-5.72-4.5L922.1,793l-2.86-2.25-2.82-2.31-11.27-9.22c-3.72-3.12-7.39-6.3-11.09-9.44s-7.34-6.36-11-9.59c-7.31-6.39-14.37-13-21.49-19.65s-13.94-13.54-20.94-20.2-14.22-13.13-21.42-19.59l-11.12-9.34L805.35,689l-2.85-2.25-5.7-4.5-5.7-4.49c-1.91-1.5-3.88-2.9-5.82-4.35-3.9-2.86-7.75-5.8-11.7-8.6l-11.94-8.28c-2-1.4-4-2.72-6-4l-6.09-4-6.08-4-6.18-3.82c-4.14-2.51-8.22-5.12-12.41-7.56l-12.57-7.29c-4.19-2.42-8.48-4.67-12.71-7Q674,605,647.49,593.11A971.61,971.61,0,0,0,539,551.69c-36.91-11.78-74.41-21.64-112.21-30.05-75.62-16.83-152.44-28.1-229.65-34.75-38.6-3.3-77.3-5.63-116-6.69s-77.53-1.28-116.26.4Z"/><path class="cls-2" d="M1746.22,0a174.45,174.45,0,0,0,3.4,33.89,168.39,168.39,0,0,0,10.11,32.5,173.11,173.11,0,0,0,38.14,55.74,177.84,177.84,0,0,0,26.36,21.21c2.39,1.49,4.75,3,7.17,4.48s4.89,2.82,7.39,4.12,5,2.61,7.56,3.78,5.12,2.37,7.74,3.41a177,177,0,0,0,32.31,9.77,177.87,177.87,0,0,0,33.6,3.41,173.39,173.39,0,0,0,66.16-12.58,173.65,173.65,0,0,0,30-15.75,172.09,172.09,0,0,0,26.33-21.45,169.82,169.82,0,0,0,21.62-26.22,173.07,173.07,0,0,0,15.95-30A171,171,0,0,0,2092.88,0a173.81,173.81,0,0,0-3.58-33.68,175.08,175.08,0,0,0-10-32.3,174.37,174.37,0,0,0-37.6-55.71,172.36,172.36,0,0,0-55.9-37.14,174.52,174.52,0,0,0-32.26-9.72,175.48,175.48,0,0,0-33.53-3.3,174.17,174.17,0,0,0-33.55,3.22,177,177,0,0,0-32.31,9.64,175.52,175.52,0,0,0-56.23,36.9,172.84,172.84,0,0,0-38.15,55.72,168.2,168.2,0,0,0-10.11,32.48A173.71,173.71,0,0,0,1746.22,0Zm-.4,0a178.55,178.55,0,0,1,12.91-66.8,176.13,176.13,0,0,1,37.32-57.15,173.2,173.2,0,0,1,56.64-38.56,174.29,174.29,0,0,1,67.31-13.6,174.84,174.84,0,0,1,67.38,13.43,176.3,176.3,0,0,1,57,38.33,174.65,174.65,0,0,1,37.87,57.16A174.07,174.07,0,0,1,2095.07,0a176.72,176.72,0,0,1-3.58,34.11c-.55,2.81-1.3,5.58-1.93,8.36s-1.57,5.5-2.34,8.26c-.36,1.38-.88,2.72-1.32,4.07l-1.39,4.06c-.43,1.37-1,2.68-1.52,4l-1.59,4A173.7,173.7,0,0,1,2065.17,97a180,180,0,0,1-21.66,26.51,177,177,0,0,1-26.4,21.83,173.54,173.54,0,0,1-30.1,16.44,174.88,174.88,0,0,1-67,13.86,172.15,172.15,0,0,1-67.26-13.26,171.71,171.71,0,0,1-56.65-38.47,175.66,175.66,0,0,1-37.33-57.12A178.92,178.92,0,0,1,1745.82,0Z"/><circle class="cls-2" cx="1918.47" cy="1.53" r="134.94"/></svg>