<svg xmlns="http://www.w3.org/2000/svg" viewBox="0 0 52.09 52.09"><defs><style>.cls-1{fill:#fff;}</style></defs><g id="Calque_2" data-name="Calque 2"><g id="Calque_1-2" data-name="Calque 1"><path class="cls-1" d="M31.44,0h17.5a3.89,3.89,0,0,1,2.27,1.41,14.29,14.29,0,0,1,.88,1.85V27.17a.22.22,0,0,0-.05.08,3.85,3.85,0,0,1-4.19,3.15H32.39a5.21,5.21,0,0,1-1.31-.14,3.78,3.78,0,0,1-2.87-3.88c0-4.77,0-9.53,0-14.3,0-2.69,0-5.39,0-8.08A3.84,3.84,0,0,1,30.67.25C30.92.15,31.18.08,31.44,0Z"/><path class="cls-1" d="M0,48.94v-24a.41.41,0,0,0,.05-.09A3.86,3.86,0,0,1,4.24,21.7H19.81a3.82,3.82,0,0,1,4.07,4.08c0,2,0,4,0,6V48.05a3.8,3.8,0,0,1-2.18,3.67,9.32,9.32,0,0,1-1.05.37H3.26a4,4,0,0,1-2.79-2A11.72,11.72,0,0,1,0,48.94Z"/><path class="cls-1" d="M20.65,0a11.38,11.38,0,0,1,1.88.94,3.52,3.52,0,0,1,1.35,3c0,3.2,0,6.4,0,9.61A3.77,3.77,0,0,1,20,17.36c-5.37,0-10.75,0-16.12,0a3.79,3.79,0,0,1-3.8-3A2.34,2.34,0,0,0,0,14.14v-11l.19-.51a3.67,3.67,0,0,1,2-2.26c.32-.15.66-.25,1-.38Z"/><path class="cls-1" d="M31.44,52.09a10.12,10.12,0,0,1-1.09-.4,3.64,3.64,0,0,1-2.13-3.38c0-3.27,0-6.55,0-9.82a3.76,3.76,0,0,1,3.91-3.76c3.9,0,7.8,0,11.7,0H48a3.81,3.81,0,0,1,4,3.1.54.54,0,0,0,.07.13V48.84a11.73,11.73,0,0,1-.81,1.76,3.77,3.77,0,0,1-2.44,1.49Z"/></g></g></svg>