<svg xmlns="http://www.w3.org/2000/svg" viewBox="0 0 53.52 53.52"><defs><style>.cls-1{fill:#fff;}</style></defs><g id="Calque_2" data-name="Calque 2"><g id="Calque_1-2" data-name="Calque 1"><path class="cls-1" d="M21,0h2.93l1.38.19A22,22,0,0,1,40.73,9.4a21.9,21.9,0,0,1,4.09,15.45c-.11,1.11-.36,2.22-.53,3.2a18.5,18.5,0,0,0-3-.63A6.58,6.58,0,0,0,35,30.9Q31.14,37.46,27.31,44a.94.94,0,0,1-.75.54c-1.06.1-2.11.3-3.17.34A21.69,21.69,0,0,1,11,41.79,22.09,22.09,0,0,1,.41,26.67C.23,25.76.13,24.85,0,23.94V21a2.88,2.88,0,0,0,.09-.4A21.85,21.85,0,0,1,5,8.4,22,22,0,0,1,18.34.4C19.22.23,20.12.13,21,0Zm-.1,14.32c0,1.1,0,2.19,0,3.29a.53.53,0,0,1-.36.59,4.69,4.69,0,1,0,6.19,6.21.55.55,0,0,1,.63-.37c1.45,0,2.89,0,4.34,0a1.57,1.57,0,1,0,0-3.13c-1.44,0-2.89,0-4.33,0a.54.54,0,0,1-.62-.38,4.44,4.44,0,0,0-2.31-2.32.56.56,0,0,1-.4-.61q0-3.26,0-6.53a1.57,1.57,0,1,0-3.13,0C20.9,12.16,20.91,13.24,20.91,14.32ZM4.63,24a1.57,1.57,0,1,0-1.49-1.63A1.59,1.59,0,0,0,4.63,24Zm37.18-1.59A1.57,1.57,0,1,0,40.27,24,1.58,1.58,0,0,0,41.81,22.45ZM24,4.72a1.57,1.57,0,1,0-1.57,1.55A1.58,1.58,0,0,0,24,4.72Zm-1.57,34A1.57,1.57,0,1,0,24,40.22,1.58,1.58,0,0,0,22.47,38.68ZM31.35,5.53a1.56,1.56,0,0,0-1.56,1.55,1.57,1.57,0,1,0,3.13,0A1.55,1.55,0,0,0,31.35,5.53ZM5.53,31.38a1.54,1.54,0,0,0,1.58,1.54,1.57,1.57,0,1,0-1.58-1.54ZM13.59,5.53A1.55,1.55,0,0,0,12,7.07a1.57,1.57,0,1,0,3.13,0A1.55,1.55,0,0,0,13.59,5.53ZM5.53,13.58a1.55,1.55,0,0,0,1.54,1.57,1.56,1.56,0,1,0,0-3.12A1.54,1.54,0,0,0,5.53,13.58Zm33.89,0A1.54,1.54,0,0,0,37.87,12a1.56,1.56,0,1,0,0,3.12A1.55,1.55,0,0,0,39.42,13.58ZM13.58,39.42a1.55,1.55,0,0,0,1.57-1.54,1.57,1.57,0,1,0-3.13,0A1.57,1.57,0,0,0,13.58,39.42Z"/><path class="cls-1" d="M31.88,53.52a1.15,1.15,0,0,0-.23-.1,4.09,4.09,0,0,1-2.6-6.17q3.47-5.93,7-11.84c.58-1,1.16-2,1.75-3a3.65,3.65,0,0,1,6.42,0q4.38,7.41,8.72,14.86a10.2,10.2,0,0,1,.62,1.53v1.26a2.84,2.84,0,0,0-.13.38A4.11,4.11,0,0,1,51,53.18c-.31.14-.64.23-1,.34Zm7.53-13.65c0,.7,0,1.4,0,2.09a1.57,1.57,0,1,0,3.13,0c0-1.37,0-2.74,0-4.12a1.57,1.57,0,1,0-3.13,0C39.4,38.55,39.41,39.21,39.41,39.87ZM41,48.81a1.57,1.57,0,1,0-1.56-1.56A1.58,1.58,0,0,0,41,48.81Z"/><path class="cls-1" d="M24,22.45a1.57,1.57,0,1,1-1.57-1.54A1.59,1.59,0,0,1,24,22.45Z"/></g></g></svg>