<svg xmlns="http://www.w3.org/2000/svg" viewBox="0 0 54.33 54.33"><defs><style>.cls-1{fill:#fff;}</style></defs><g id="Calque_2" data-name="Calque 2"><g id="Calque_1-2" data-name="Calque 1"><path class="cls-1" d="M12.2,0c.61.13,1.22.22,1.81.38A11.14,11.14,0,1,1,.1,12.61c0-.14-.07-.27-.1-.41V10.08c0-.13.08-.27.1-.4a11,11,0,0,1,7.42-9A20.35,20.35,0,0,1,10.08,0ZM10.06,11.14c-.28-.29-.51-.55-.76-.8A1.6,1.6,0,1,0,7,12.58c.58.6,1.17,1.18,1.76,1.76a1.62,1.62,0,0,0,2.55,0c.87-.86,1.73-1.73,2.59-2.59.54-.55,1.11-1.08,1.64-1.65a1.59,1.59,0,0,0-2.25-2.24c-.17.15-.33.32-.49.48Z"/><path class="cls-1" d="M54.33,12.2c-.09.49-.18,1-.29,1.45A11.14,11.14,0,1,1,41.78.1c.12,0,.23-.07.35-.1h2.12c.12,0,.24.08.35.1a11.11,11.11,0,0,1,9.31,8c.18.65.28,1.31.42,2ZM43.18,13.35l2,2.05a1.59,1.59,0,1,0,2.32-2.17c-.66-.7-1.39-1.35-2.13-2.06l2.08-2.05a1.59,1.59,0,1,0-2.2-2.3c-.7.67-1.36,1.38-2.13,2.16a5.23,5.23,0,0,0-.41-.55c-.54-.55-1.08-1.11-1.65-1.64a1.55,1.55,0,0,0-1.86-.24,1.44,1.44,0,0,0-.79,1.59,2.54,2.54,0,0,0,.57,1c.61.68,1.28,1.3,2,2-.7.69-1.37,1.3-2,2a2.35,2.35,0,0,0-.56,1,1.45,1.45,0,0,0,.8,1.58,1.53,1.53,0,0,0,1.86-.26C41.79,14.81,42.45,14.1,43.18,13.35Z"/><path class="cls-1" d="M23.56,54.33V51.19h21v3.14Z"/><path class="cls-1" d="M44.5,47.94h-21c0-.41,0-.8,0-1.18a.89.89,0,0,0-.38-.81c-2.59-2.16-5.18-4.34-7.76-6.51a3.16,3.16,0,0,1-1.16-3.54,3.61,3.61,0,0,1,3.1-2.38,4,4,0,0,1,3,1c1,.87,2,1.7,3.15,2.65v-.73c0-5.43,0-10.86,0-16.29a3.48,3.48,0,0,1,1.93-3.39,3.43,3.43,0,0,1,5,2.77c.12,1.78.05,3.57.05,5.36,0,1.27,0,2.54,0,3.88l2.42.32c2.86.36,5.72.71,8.57,1.08a3.44,3.44,0,0,1,3,3.11,5.83,5.83,0,0,1,0,.59V47.47C44.52,47.61,44.51,47.75,44.5,47.94Z"/></g></g></svg>