<svg xmlns="http://www.w3.org/2000/svg" viewBox="0 0 512.5 230.7"><defs><style>.cls-1,.cls-2{fill:#f2f2f2;}.cls-2{stroke:#96968d;stroke-miterlimit:10;}</style></defs><g id="Calque_2" data-name="Calque 2"><g id="Calque_1-2" data-name="Calque 1"><path class="cls-1" d="M359.63,229.75c1.8-4.53,3.63-9,5.41-13.57q13.53-34.44,27-68.88a2.56,2.56,0,0,1,2.79-1.93q9.5.12,19,0a2.42,2.42,0,0,1,2.65,1.77q13.42,33.59,26.91,67.13,2.93,7.26,5.86,14.52c.2.49.34,1,.62,1.85h-8c-5.31,0-10.61,0-15.92,0a2,2,0,0,1-2.35-1.65c-1.09-3.54-2.31-7.06-3.66-10.52a2.93,2.93,0,0,0-2.06-1.6q-13.67-.17-27.32,0a2.7,2.7,0,0,0-1.9,1.49c-1.37,3.53-2.62,7.12-3.78,10.73a1.9,1.9,0,0,1-2.18,1.55q-23.76-.06-47.51,0a1.93,1.93,0,0,1-2.22-1.54c-1.12-3.53-2.47-7-3.58-10.54a2.22,2.22,0,0,0-2.55-1.79q-13.31.07-26.6,0a2.06,2.06,0,0,0-2.39,1.67c-1.11,3.54-2.47,7-3.62,10.53-.38,1.14-.83,1.67-2.13,1.66-7.67-.06-15.35,0-23.35,0,.29-.94.47-1.74.77-2.5Q281.84,197,294.1,165.93c2.41-6.11,4.85-12.2,7.17-18.33.58-1.54,1.25-2.27,3-2.24,6.25.11,12.51.1,18.76,0a2.59,2.59,0,0,1,2.82,1.88q12.78,31.92,25.59,63.83,3.75,9.33,7.52,18.66ZM395,198.31h18.78l-9.44-26.44C401,181.06,398,189.59,395,198.31Zm-90.71.06h18.81l-9.21-25.77-.56.14C310.3,181.21,307.31,189.68,304.24,198.37Z"/><path class="cls-1" d="M144.46,180.47,156.07,162c3.16-5,6.27-10.07,9.51-15a3.44,3.44,0,0,1,2.33-1.5c8.15-.11,16.31-.06,24.46-.05a9,9,0,0,1,1.06.26c-2.23,3.4-4.35,6.66-6.51,9.91-6.46,9.76-12.89,19.54-19.44,29.25-1,1.45-.84,2.38.09,3.74Q181.4,208.72,195.11,229c.29.43.49.93.89,1.68H179.88c-3,0-6-.12-9,.05a3.75,3.75,0,0,1-3.8-2.06c-7.1-11-14.28-22-21.44-33a4.59,4.59,0,0,0-1.85-1.73v6.3c0,9.27-.05,18.53.07,27.79,0,2.19-.64,2.8-2.82,2.76-6.73-.15-13.45-.06-20.4-.06V145.56h23.11v34.72Z"/><path class="cls-1" d="M482.19,180.47h27.15v20.25h-4.08c-7,0-13.94.07-20.91,0-1.94,0-2.42.63-2.4,2.46.08,8.15,0,16.31,0,24.47v2.9H458.77V145.6H512.5v20.86H482.19Z"/><path class="cls-1" d="M237.45,176.15c2.25-4.42,4.3-8.41,6.32-12.42,2.79-5.5,5.51-11,8.39-16.48a3.5,3.5,0,0,1,2.37-1.77c7.76-.13,15.52-.07,23.27-.06a4.85,4.85,0,0,1,1,.27c-1.2,2.13-2.31,4.17-3.47,6.19-8.28,14.4-16.6,28.77-24.8,43.21a11.05,11.05,0,0,0-1.35,5.1c-.14,9.1-.06,18.2-.06,27.31v3h-23.7V227.7c0-9.42,0-18.83,0-28.25a8.14,8.14,0,0,0-1-3.78q-13.62-24-27.37-48c-.33-.59-.62-1.21-1.07-2.1,1-.06,1.8-.14,2.56-.14,7,0,13.93,0,20.89,0a3.07,3.07,0,0,1,3.3,1.93c4.3,8.71,8.75,17.35,13.16,26C236.28,174.14,236.77,174.93,237.45,176.15Z"/><path class="cls-2" d="M95.7,229.26c-3.06-4.77-5.87-9.13-8.66-13.5q-18.75-29.3-37.46-58.62c-1-1.65-2.1-2-4-1.8-15.66,1.37-27.91-4.62-36.78-17.55-4.64-6.76-7.94-14-8.23-22.4C0,100.59,6,89.18,18.37,81.14a27.4,27.4,0,0,0,7.18-6.73C40.65,54.17,55.74,33.92,71,13.8A32.5,32.5,0,0,1,97.68.5c12-.08,21.71,5,28.74,14.88a21.93,21.93,0,0,1,1.4,2.19,21.38,21.38,0,0,0,10.18,10,25,25,0,0,1,8.61,6.92c5.65,7,11.11,14.29,13.53,23.19a42.36,42.36,0,0,1,1.29,9.6,11.52,11.52,0,0,0,1.69,5.5c2.65,4.65,5.77,9.2,7.45,14.21,6.27,18.78-5.85,39.28-25.22,43.38-11.13,2.36-22.26,4.76-33.4,7.08-2,.41-3,1.11-3.28,3.43-2.82,20.2-5.85,40.37-8.81,60.55Q97.94,214.56,96,227.7C96,228.06,95.89,228.4,95.7,229.26Zm-.87-3,.57-.21c.1-.45.23-.89.3-1.34,1.16-8.14,2.28-16.28,3.47-24.42,2.94-20.18,5.93-40.35,8.8-60.54a3,3,0,0,1,2.71-2.92c11.21-2.36,22.38-5,33.63-7.12,20.64-4,32.88-26.49,24.38-45.66-1.94-4.37-4.87-8.31-7.25-12.49a5.94,5.94,0,0,1-.75-2.84c.07-5.13-.39-10.22-2.73-14.8-2.51-4.91-5.5-9.59-8.38-14.31C146.86,35.16,143.42,31,138.69,29,132.58,26.31,129,21.68,126,16.28c-.12-.21-.25-.41-.38-.6-6.77-9.4-16.07-14.33-27.53-14.34-11.29,0-20.44,4.94-27.25,14Q49.22,44.13,27.69,73a40.5,40.5,0,0,1-10.3,9.92A36.63,36.63,0,0,0,1.84,120.11,45.85,45.85,0,0,0,11,139.44c8.87,11.47,20.6,16.66,35.12,15a3.58,3.58,0,0,1,4,2Q69.74,187.21,89.48,218C91.25,220.76,93.05,223.51,94.83,226.27Z"/><path class="cls-2" d="M92.11,212.64c-5.44-8.5-10.56-16.48-15.67-24.47q-12.15-19-24.3-38c-.63-1-1.09-2-2.73-1.59-16.94,4.23-30.72-4.59-38.28-18.06C2,114.23,6.26,95.9,22.11,85.81a29.54,29.54,0,0,0,8-7.57q22.4-30.09,45-60.06c12.4-16.45,36.09-15.54,47.23,1.74.52.8,1.06,1.58,1.53,2.4,2.48,4.23,5.1,8,10.25,9.8,5,1.78,8.54,5.87,11.36,10.42C147.6,46,149.94,49.43,152,53a29.19,29.19,0,0,1,3.57,16,9.2,9.2,0,0,0,1.2,4.61c1.68,3,3.78,5.84,5.54,8.85,9.94,17,.62,38-18.75,42.25q-18.87,4.11-37.79,8c-1.34.28-2,.73-2.21,2.22C102,146,100.32,157,98.72,168q-3.07,21.22-6.11,42.48C92.54,211,92.37,211.55,92.11,212.64Zm-.88-3,.58-.07c.17-.84.37-1.67.49-2.52,1-7.28,2-14.57,3-21.85,2.47-16.89,5-33.76,7.44-50.66a2.57,2.57,0,0,1,2.42-2.58q19-4,38-8.07c19-4.14,28-24.33,18.33-41-1.74-3-3.85-5.81-5.52-8.85a9.84,9.84,0,0,1-1.27-4.82,30,30,0,0,0-4.81-18c-1.85-2.85-3.65-5.74-5.51-8.59a29,29,0,0,0-14.83-11.68,5.46,5.46,0,0,1-2.47-2c-2-2.86-3.75-5.86-5.69-8.76C115.61,11.47,107.46,7,97,7.34c-9.46.3-16.56,5-22.12,12.47C60.34,39.28,45.69,58.67,31.2,78.17A34.92,34.92,0,0,1,21.83,87c-9.9,6.33-15,15.66-14.56,27.37.41,11.29,6,20.33,14.43,27.57a29,29,0,0,0,13.86,6.33,34.53,34.53,0,0,0,15.73-1Z"/><path class="cls-2" d="M88.64,196.21c-6.11-9.56-12-18.74-17.84-27.91s-11.68-18.21-17.14-26.72c-4.6.76-8.67,1.77-12.78,2A21.1,21.1,0,0,1,26.23,139c-8.72-6.91-14.23-15.64-13.74-27.26.32-7.83,3.41-14.79,10-18.78,7.91-4.82,12.92-11.9,18.2-19Q59.91,48.22,79.21,22.48c3.9-5.2,8.77-8.87,15.38-9.77,9.35-1.27,16.78,2,22.19,9.68,2.41,3.42,4.46,7.1,6.87,10.53a6.67,6.67,0,0,0,3.2,2.45,23.21,23.21,0,0,1,13.21,9.88c2.81,4.47,5.65,9,8,13.68,1.7,3.43,1.78,7.3,1.37,11.16a8.25,8.25,0,0,0,.95,4.62c1.8,3.24,3.91,6.32,6,9.42,8.89,13.46,2.3,30.82-13.4,34.5-13.84,3.25-27.8,6-41.72,9-1.59.33-2.75.58-3,2.76-1.72,12.85-3.68,25.66-5.55,38.49C91.33,177.79,90,186.75,88.64,196.21Zm-.7-2.75c.32-1,.48-1.39.54-1.75q1.72-11.85,3.43-23.7c1.85-12.75,3.79-25.48,5.51-38.25.28-2.06,1.22-2.52,2.93-2.88,14.22-3,28.46-6,42.65-9.11a21.32,21.32,0,0,0,13.69-31.28c-2.33-4-5-7.87-7.4-11.89a5.9,5.9,0,0,1-.81-3.48A23.47,23.47,0,0,0,145.29,55c-1.91-3.1-3.89-6.16-5.9-9.19a23.12,23.12,0,0,0-13.07-9.66,6.6,6.6,0,0,1-3.23-2.41c-2.44-3.5-4.53-7.24-7-10.74-4.93-7.06-11.69-10.38-20.37-9.53-6.86.67-11.89,4.29-15.9,9.67C66,41.6,52.1,60.06,38.33,78.61,34.21,84.15,29.88,89.18,23.84,93c-7.21,4.52-10.5,11.76-10.63,20.36-.11,7.49,3.28,13.57,7.56,19.28a25.07,25.07,0,0,0,30.76,8c1.55-.69,2.29-.47,3.21,1,8.3,13.1,16.69,26.14,25.05,39.2C82.38,184.84,85,188.88,87.94,193.46Z"/><path class="cls-2" d="M85,179.51,55.16,132.87c-2,1.09-3.63,2.14-5.4,3a19.92,19.92,0,0,1-23-4.05c-4.52-4.7-7.95-10.19-8.43-16.86-.51-7,1.57-13.65,7.63-17.17C34.82,92.63,40.1,84.6,45.9,76.87,58.74,59.79,71.45,42.61,84.39,25.61c7.94-10.44,21.27-9.68,28.31,1.35,2.46,3.87,4.85,7.79,7.46,11.56a5.52,5.52,0,0,0,3.11,2.1c4.91,1,8.92,3.34,11.58,7.56,2.86,4.53,5.94,9,7.9,14,1.13,2.82.2,6.46.27,9.73a6.35,6.35,0,0,0,.46,3c2.54,4.2,5.23,8.3,7.88,12.43,6.89,10.77,1.47,23.35-11.06,25.93-14.86,3.06-29.68,6.3-44.54,9.39-1.78.37-2.63,1-2.9,3-1.73,12.61-3.61,25.2-5.45,37.79C86.66,168.55,85.88,173.69,85,179.51ZM84,176.25l.6-.11c.23-1.21.5-2.42.68-3.64,2.09-14.55,4.14-29.11,6.25-43.66.9-6.19,1-6.19,7.05-7.56l1.39-.29c13.29-2.83,26.55-5.81,39.88-8.45,12-2.38,17.42-14.31,10.86-24.65-2.71-4.27-5.5-8.5-8.12-12.83a4.33,4.33,0,0,1-.41-3c.93-3.47,1.4-7.07-.31-10.22a138.21,138.21,0,0,0-9.48-15.23c-2.27-3.15-5.87-4.65-9.82-5.19a4.16,4.16,0,0,1-2.59-1.66c-3-4.46-5.78-9.08-8.8-13.53a15.07,15.07,0,0,0-14.89-6.95c-5,.53-8.69,3.4-11.67,7.38Q64.93,53,45.19,79.29C40,86.28,35.05,93.36,27.07,98c-6.39,3.72-8.53,10.47-7.7,17.94.59,5.37,3.41,9.68,6.63,13.7a19.22,19.22,0,0,0,24.18,5.09c1.75-.88,3.38-2,5.19-3.1Z"/><path class="cls-2" d="M81.33,162.64c-1.81-2.78-3.31-5.07-4.78-7.37-6.11-9.53-12.26-19-18.27-28.62-1.1-1.74-2-1.82-3.57-.78a60.47,60.47,0,0,1-7.49,4.54A14.3,14.3,0,0,1,29,125.28c-2.55-3.74-4.92-7.53-4.67-12.4.23-4.59,1.8-8.8,5.74-10.86,8-4.21,12.89-11.2,18-18.11Q67.76,57.54,87.49,31.23c2-2.65,3.9-5.39,7.35-6.45a10.31,10.31,0,0,1,12,4.22c3.46,5.2,6.72,10.54,10.21,15.73a4,4,0,0,0,2.77,1.53,12.14,12.14,0,0,1,10.64,6c1.78,2.81,3.6,5.59,5.34,8.42a11.36,11.36,0,0,1,.65,11.53,3,3,0,0,0,.28,3.44c3.23,4.89,6.38,9.82,9.5,14.78,4.64,7.35,1.26,15.29-7.24,17.08l-43.16,9.09c-1.93.41-3.85,1-5.8,1.22s-2.3,1.18-2.52,2.77q-2.66,18.92-5.4,37.8C82,159.63,81.69,160.83,81.33,162.64Zm-.91-3,.67-.13c.44-3,.87-6.06,1.31-9.09,1.45-10,2.95-20,4.32-30.05.27-2,.92-3,3-3.41,7.3-1.39,14.55-3,21.81-4.56,9.43-2,18.9-3.85,28.27-6.11,7.19-1.73,9.82-8.78,5.89-15-3.31-5.3-6.77-10.52-10-15.85a3.47,3.47,0,0,1-.21-2.88A11.28,11.28,0,0,0,135,60.83c-1.81-2.88-3.61-5.77-5.51-8.59a10.52,10.52,0,0,0-9.63-5.05,3.43,3.43,0,0,1-3.56-2c-3.11-5.06-6.36-10-9.55-15a10,10,0,0,0-6.47-4.83c-5-1.06-8.27,1.35-11.08,5.11C75.42,48.86,61.59,67.19,47.88,85.6c-4.82,6.48-9.33,13.2-17,16.74a1.27,1.27,0,0,0-.19.13,13.39,13.39,0,0,0-5.55,11c-.07,4.68,2.41,8.31,5,11.8,4.61,6.21,12.22,7.47,18.78,3.31,2.07-1.31,4.12-2.66,6.22-3.93,1.39-.84,2.45-.82,3.48.86,4,6.47,8.14,12.83,12.24,19.23C74,149.74,77.23,154.71,80.42,159.68Z"/><path class="cls-1" d="M58.39,80.76c2,4.33,3.79,8.46,5.85,12.43a74.37,74.37,0,0,0,13.67,18.43c1,1,2.34,1.51,4.08,2.59-1.34,9.49-2.79,19.75-4.33,30.7-1-1.46-1.72-2.36-2.32-3.31-4.65-7.36-9.25-14.74-13.94-22.07a15.6,15.6,0,0,0-2.58-2.69A46.24,46.24,0,0,1,47,98.45,3.08,3.08,0,0,1,47,96C50.72,90.92,54.53,85.91,58.39,80.76Z"/><path class="cls-1" d="M114,55.09c1.16-.58,2.22-1.09,3.26-1.63,2.86-1.48,5.7-.89,7.51,1.76q2.94,4.31,5.62,8.8A5.55,5.55,0,0,1,129,71.63c-.93.74-1.89,1.43-3,2.28L136.29,90a42.45,42.45,0,0,1,3.11,5c.44,1,.12,2.27.15,3.43A7.93,7.93,0,0,1,137,97.32c-5.62-5.78-11.14-11.66-16.73-17.47a10.91,10.91,0,0,0-2.16-1.19,4.2,4.2,0,0,1-1.4-1.12q-5-7.76-10-15.57c-.21-.33-.55-.87-.43-1.06,1.45-2.27-.61-3.73-1.27-5.46-2.45-6.51-5-13-7.54-19.46a23.62,23.62,0,0,1-.71-2.93c2.13-1.17,3.1,0,4,1.45q5.88,9.2,11.78,18.39C113,53.62,113.51,54.32,114,55.09Z"/><path class="cls-1" d="M47.88,122.18c-5.25,4.91-10.56,4.3-14.21-1.49A18.8,18.8,0,0,1,31,115.23c-1.08-4.58.74-7.43,6-9.9Z"/><path class="cls-1" d="M54,119.32c-.76-.27-1.86-.32-2.22-.86-3.49-5.25-6.85-10.59-10.07-16.63.77.07,2-.15,2.26.26,3.57,5.38,7,10.85,10.49,16.3Z"/><path class="cls-1" d="M83.66,113.81s54.79-12,55.24-13.82"/><path class="cls-1" d="M83.66,114.4a.59.59,0,0,1-.12-1.17c21-4.6,52.81-12,54.85-13.54a.59.59,0,0,1,1.09.44c-.16.63-.37,1.49-28.23,8-13.6,3.19-27.32,6.2-27.46,6.23Z"/><path class="cls-1" d="M94.89,32.59c-1.32,0-35.49,46.7-35.49,46.7"/><path class="cls-1" d="M59.4,79.89a.55.55,0,0,1-.35-.12.58.58,0,0,1-.13-.83C81.71,47.8,93.81,32,94.88,32h0a.6.6,0,0,1,.19,1.16c-1.87,1.38-22,28.49-35.2,46.49A.61.61,0,0,1,59.4,79.89Z"/></g></g></svg>