<svg xmlns="http://www.w3.org/2000/svg" viewBox="0 0 58.23 58.23"><defs><style>.cls-1{fill:#5c7de0;}</style></defs><g id="Calque_2" data-name="Calque 2"><g id="Calque_1-2" data-name="Calque 1"><path class="cls-1" d="M0,42c.19-1,.31-2.09.57-3.11a19,19,0,0,1,10.49-13,1.4,1.4,0,0,1,1.67.12,14,14,0,0,0,16.41-.12,1,1,0,0,1,1.26-.13c1.05.59,2.12,1.15,3.29,1.77l-3,2.11a2,2,0,0,0-.55,3.07c.4.58.8,1.16,1.18,1.75.07.12.14.35.07.43a.57.57,0,0,1-.45.15c-.73-.1-1.46-.25-2.18-.37a1.91,1.91,0,0,0-2.36,1.64c-.28,1.53-.54,3-.81,4.58-.08.41-.17.82-.22,1.23a1.9,1.9,0,0,0,1.68,2.33c.67.12,1.34.23,2,.37a.68.68,0,0,1,.42.34c0,.1-.12.32-.25.42-.59.45-1.2.86-1.79,1.3a1.93,1.93,0,0,0-.48,2.8l1.82,2.69H10.44c0-1.79,0-3.56,0-5.34a.86.86,0,0,0-.91-.89.84.84,0,0,0-.87.85c0,1.63,0,3.26,0,4.89a2.75,2.75,0,0,0,.11.55H0Z"/><path class="cls-1" d="M22.06,0c.48.1,1,.17,1.44.3,5.43,1.42,8.65,5,9.86,10.38a13.6,13.6,0,0,1-5.54,14,12.46,12.46,0,0,1-17.75-4A13.73,13.73,0,0,1,14.61,1.71,12,12,0,0,1,19.3.1a1.78,1.78,0,0,0,.38-.1Z"/><path class="cls-1" d="M42.42,58.23l-3.93-.79c-.46-.1-.93-.18-1.4-.25s-.58-.28-.49-.72c.19-1,.32-1.94.52-2.9a.79.79,0,0,0-.46-1,4.46,4.46,0,0,1-.86-.54.91.91,0,0,0-1.31,0c-.75.55-1.54,1.05-2.3,1.58-.32.24-.53.23-.77-.13-1-1.55-2.06-3.1-3.11-4.62-.26-.38-.19-.59.15-.84.78-.54,1.53-1.11,2.31-1.65a.85.85,0,0,0,.38-1.07,6.39,6.39,0,0,1-.2-1.06.85.85,0,0,0-.79-.82c-.95-.17-1.89-.39-2.85-.54-.42-.07-.47-.24-.4-.61.34-1.85.66-3.69,1-5.54.09-.51.34-.65.84-.53.87.19,1.75.32,2.62.5a.84.84,0,0,0,1.1-.53,1.8,1.8,0,0,1,.35-.58c.61-.61.47-1.17,0-1.8s-.94-1.42-1.43-2.11a.43.43,0,0,1,.12-.71l4.65-3.24c.31-.21.53-.16.75.17.52.81,1.09,1.59,1.62,2.4a.78.78,0,0,0,1,.39A3.15,3.15,0,0,1,40,30.6c1.41-.22,1.3-.15,1.54-1.56.13-.74.29-1.48.41-2.23.07-.41.28-.53.68-.46q2.7.52,5.42,1c.42.08.56.28.47.72-.2,1-.34,2-.53,3a.73.73,0,0,0,.43.88,8.51,8.51,0,0,1,1,.64.81.81,0,0,0,1.09,0c.79-.55,1.6-1.08,2.4-1.62l.51-.31,2.2,3.29c.38.57.74,1.16,1.15,1.7s.19.63-.17.87c-.79.54-1.55,1.1-2.33,1.63a.8.8,0,0,0-.38,1.06,3.88,3.88,0,0,1,.14.61c.19,1.16.19,1.16,1.33,1.37.71.13,1.42.24,2.12.39a4.24,4.24,0,0,1,.77.3v.57a3,3,0,0,0-.11.37c-.31,1.66-.62,3.31-.89,5-.09.54-.35.64-.83.55-.83-.16-1.68-.27-2.5-.48a1,1,0,0,0-1.3.63,2.91,2.91,0,0,1-.49.76.81.81,0,0,0,0,1.13c.55.79,1.06,1.61,1.62,2.4.25.36.22.59-.14.84-1.54,1-3.06,2.1-4.58,3.17a.46.46,0,0,1-.75-.15c-.42-.65-.91-1.26-1.29-1.93s-.95-1.15-1.83-.77a1.5,1.5,0,0,1-.56.1.88.88,0,0,0-.89.85c-.14.91-.3,1.83-.49,2.74a2.44,2.44,0,0,1-.32.62Zm.11-9.29a6.76,6.76,0,1,0-6.62-6.75A6.73,6.73,0,0,0,42.53,48.94Z"/><path class="cls-1" d="M47.66,42.21a5.11,5.11,0,1,1-10.22,0,5.11,5.11,0,1,1,10.22,0Z"/></g></g></svg>