<svg xmlns="http://www.w3.org/2000/svg" viewBox="0 0 58.94 58.94"><defs><style>.cls-1{fill:#fff;}</style></defs><g id="Calque_2" data-name="Calque 2"><g id="Calque_1-2" data-name="Calque 1"><path class="cls-1" d="M0,42.48c.19-1,.31-2.12.58-3.15A19.21,19.21,0,0,1,11.2,26.2a1.42,1.42,0,0,1,1.68.12A14.17,14.17,0,0,0,29.5,26.2a1,1,0,0,1,1.27-.13c1.06.6,2.15,1.16,3.33,1.79l-3,2.14a2,2,0,0,0-.55,3.11c.39.59.8,1.17,1.19,1.76.07.12.14.37.07.44a.58.58,0,0,1-.46.16c-.74-.11-1.47-.26-2.21-.38a1.93,1.93,0,0,0-2.38,1.66c-.28,1.54-.55,3.09-.82,4.64-.08.41-.17.82-.23,1.24A1.94,1.94,0,0,0,27.38,45c.67.12,1.36.23,2,.38a.66.66,0,0,1,.43.33c0,.1-.13.33-.25.43-.6.45-1.22.87-1.82,1.32a2,2,0,0,0-.48,2.83c.59.89,1.19,1.77,1.84,2.72H10.56c0-1.81,0-3.6,0-5.4a.87.87,0,0,0-.92-.9.86.86,0,0,0-.89.86c0,1.65,0,3.3,0,4.95a4.07,4.07,0,0,0,.11.56H0Z"/><path class="cls-1" d="M22.33,0c.48.1,1,.18,1.45.3,5.5,1.44,8.76,5.05,10,10.51a13.74,13.74,0,0,1-5.6,14.12,12.61,12.61,0,0,1-18-4.05A13.9,13.9,0,0,1,14.78,1.73,12.21,12.21,0,0,1,19.53.1a1.64,1.64,0,0,0,.38-.1Z"/><path class="cls-1" d="M42.94,58.94l-4-.81-1.42-.25c-.42-.07-.58-.28-.5-.72.19-1,.33-2,.53-2.94a.8.8,0,0,0-.46-1,4.2,4.2,0,0,1-.88-.55.92.92,0,0,0-1.33,0c-.75.56-1.55,1.06-2.32,1.6-.33.24-.54.23-.78-.13-1-1.57-2.08-3.13-3.15-4.68-.26-.38-.19-.6.16-.84.78-.55,1.55-1.13,2.34-1.68a.87.87,0,0,0,.38-1.09,6.22,6.22,0,0,1-.21-1.06.85.85,0,0,0-.8-.83c-1-.17-1.91-.4-2.87-.55-.43-.07-.48-.25-.41-.62q.51-2.8,1-5.61c.09-.51.34-.65.85-.54.88.2,1.77.34,2.65.51a.84.84,0,0,0,1.11-.53A2.22,2.22,0,0,1,33.2,36c.61-.62.48-1.18,0-1.82s-1-1.43-1.45-2.14a.44.44,0,0,1,.12-.72l4.71-3.27a.46.46,0,0,1,.75.16c.54.82,1.11,1.62,1.64,2.44a.8.8,0,0,0,1.07.39,3.15,3.15,0,0,1,.44-.11c1.43-.22,1.32-.15,1.57-1.57.13-.76.28-1.51.41-2.27.07-.41.28-.54.68-.46,1.83.35,3.66.68,5.49,1,.42.08.57.28.48.73-.2,1-.35,2-.54,3a.75.75,0,0,0,.43.9A6.31,6.31,0,0,1,50,33a.83.83,0,0,0,1.1,0c.8-.55,1.62-1.09,2.43-1.64l.52-.31c.76,1.14,1.49,2.24,2.23,3.33.38.58.74,1.17,1.15,1.72s.2.63-.17.89c-.79.54-1.56,1.11-2.36,1.64a.81.81,0,0,0-.38,1.07,4.29,4.29,0,0,1,.14.62c.2,1.18.2,1.18,1.35,1.39.72.13,1.44.24,2.15.39a4.69,4.69,0,0,1,.78.31v.58a2.29,2.29,0,0,0-.12.37c-.31,1.68-.62,3.35-.9,5-.09.55-.35.66-.83.57-.85-.17-1.71-.27-2.54-.49a1,1,0,0,0-1.32.64,3,3,0,0,1-.49.77.82.82,0,0,0,0,1.14c.56.8,1.07,1.63,1.64,2.43.25.36.22.6-.14.85-1.56,1.06-3.1,2.13-4.64,3.2-.33.23-.54.18-.75-.14-.44-.66-.93-1.28-1.31-2s-1-1.16-1.85-.77a1.79,1.79,0,0,1-.57.09.9.9,0,0,0-.9.86c-.14.93-.31,1.86-.49,2.77a2.78,2.78,0,0,1-.33.64Zm.1-9.41a6.84,6.84,0,1,0-6.7-6.83A6.82,6.82,0,0,0,43,49.53Z"/><path class="cls-1" d="M48.24,42.72a5.18,5.18,0,1,1-5.16-5.3A5.26,5.26,0,0,1,48.24,42.72Z"/></g></g></svg>